<?xml version="1.0" standalone="no"?>
<!DOCTYPE svg PUBLIC "-//W3C//DTD SVG 20010904//EN"
 "http://www.w3.org/TR/2001/REC-SVG-20010904/DTD/svg10.dtd">
<svg version="1.0" xmlns="http://www.w3.org/2000/svg"
 width="256.000000pt" height="256.000000pt" viewBox="0 0 256.000000 256.000000"
 preserveAspectRatio="xMidYMid meet">
<metadata>
Created by potrace 1.11, written by Peter Selinger 2001-2013
</metadata>
<g transform="translate(0.000000,256.000000) scale(0.100000,-0.100000)"
fill="#000000" stroke="none">
<path d="M0 1280 l0 -1280 1280 0 1280 0 0 1280 0 1280 -1280 0 -1280 0 0
-1280z m1622 624 c3 -3 -12 -48 -33 -100 -76 -186 -173 -501 -295 -957 -48
-178 -48 -178 -73 -172 -14 4 -27 8 -28 9 -5 5 269 1090 288 1141 11 30 30 62
42 70 21 14 88 21 99 9z m-850 -479 c22 -48 -26 -78 -307 -190 -93 -38 -173
-71 -177 -75 -5 -3 40 -25 100 -49 140 -57 331 -147 354 -168 21 -19 23 -42 5
-67 -13 -17 -19 -15 -112 35 -54 29 -178 88 -274 131 l-176 78 0 36 0 36 170
74 c94 40 217 98 275 128 58 30 111 55 118 55 7 1 18 -10 24 -24z m1094 -32
c60 -31 181 -89 269 -129 159 -71 160 -71 163 -106 l3 -34 -148 -63 c-81 -35
-211 -95 -287 -134 -131 -66 -140 -69 -153 -52 -22 31 -15 53 26 81 38 25 265
123 399 173 34 13 60 26 58 29 -3 2 -93 42 -201 87 -222 94 -275 124 -275 158
0 22 16 47 30 47 4 0 56 -26 116 -57z"/>
</g>
</svg>
