<svg xmlns="http://www.w3.org/2000/svg" width="1440" height="900"><path d="M775,535L749,642L829,642Z" fill="#610210" stroke="#610210" stroke-width="1.51"/><path d="M749,642L772,722L829,642Z" fill="#6d0312" stroke="#6d0312" stroke-width="1.51"/><path d="M749,642L706,693L772,722Z" fill="#6b0312" stroke="#6b0312" stroke-width="1.51"/><path d="M635,593L706,693L749,642Z" fill="#630210" stroke="#630210" stroke-width="1.51"/><path d="M829,642L895,500L775,535Z" fill="#5f0110" stroke="#5f0110" stroke-width="1.51"/><path d="M829,642L929,552L895,500Z" fill="#660211" stroke="#660211" stroke-width="1.51"/><path d="M896,732L929,552L829,642Z" fill="#740313" stroke="#740313" stroke-width="1.51"/><path d="M775,535L635,593L749,642Z" fill="#57010d" stroke="#57010d" stroke-width="1.51"/><path d="M772,722L896,732L829,642Z" fill="#790414" stroke="#790414" stroke-width="1.51"/><path d="M775,535L624,521L635,593Z" fill="#54010d" stroke="#54010d" stroke-width="1.51"/><path d="M762,402L624,521L775,535Z" fill="#450008" stroke="#450008" stroke-width="1.51"/><path d="M895,500L762,402L775,535Z" fill="#4e000c" stroke="#4e000c" stroke-width="1.51"/><path d="M772,722L805,806L896,732Z" fill="#820515" stroke="#820515" stroke-width="1.51"/><path d="M662,783L805,806L772,722Z" fill="#7a0414" stroke="#7a0414" stroke-width="1.51"/><path d="M895,500L913,377L762,402Z" fill="#52010c" stroke="#52010c" stroke-width="1.51"/><path d="M929,552L992,520L895,500Z" fill="#650211" stroke="#650211" stroke-width="1.51"/><path d="M1086,615L992,520L929,552Z" fill="#740313" stroke="#740313" stroke-width="1.51"/><path d="M706,693L662,783L772,722Z" fill="#710313" stroke="#710313" stroke-width="1.51"/><path d="M549,741L662,783L706,693Z" fill="#7c0414" stroke="#7c0414" stroke-width="1.51"/><path d="M549,741L706,693L635,593Z" fill="#710312" stroke="#710312" stroke-width="1.51"/><path d="M896,732L1009,700L929,552Z" fill="#7f0415" stroke="#7f0415" stroke-width="1.51"/><path d="M970,817L1009,700L896,732Z" fill="#920717" stroke="#920717" stroke-width="1.51"/><path d="M624,521L545,570L635,593Z" fill="#600110" stroke="#600110" stroke-width="1.51"/><path d="M530,519L545,570L624,521Z" fill="#5f0210" stroke="#5f0210" stroke-width="1.51"/><path d="M992,520L913,377L895,500Z" fill="#5a010f" stroke="#5a010f" stroke-width="1.51"/><path d="M805,806L917,811L896,732Z" fill="#8b0717" stroke="#8b0717" stroke-width="1.51"/><path d="M762,402L637,394L624,521Z" fill="#460009" stroke="#460009" stroke-width="1.51"/><path d="M629,291L637,394L762,402Z" fill="#53010d" stroke="#53010d" stroke-width="1.51"/><path d="M913,377L796,327L762,402Z" fill="#59010f" stroke="#59010f" stroke-width="1.51"/><path d="M548,400L530,519L624,521Z" fill="#55010d" stroke="#55010d" stroke-width="1.51"/><path d="M464,527L509,612L545,570Z" fill="#6d0212" stroke="#6d0212" stroke-width="1.51"/><path d="M545,570L509,612L635,593Z" fill="#6a0211" stroke="#6a0211" stroke-width="1.51"/><path d="M509,612L549,741L635,593Z" fill="#740413" stroke="#740413" stroke-width="1.51"/><path d="M1009,700L1086,615L929,552Z" fill="#800415" stroke="#800415" stroke-width="1.51"/><path d="M1039,786L1055,693L1009,700Z" fill="#970818" stroke="#970818" stroke-width="1.51"/><path d="M917,811L970,817L896,732Z" fill="#930818" stroke="#930818" stroke-width="1.51"/><path d="M969,871L970,817L917,811Z" fill="#9c0c1b" stroke="#9c0c1b" stroke-width="1.51"/><path d="M549,741L549,754L662,783Z" fill="#860615" stroke="#860615" stroke-width="1.51"/><path d="M467,727L549,754L549,741Z" fill="#8b0616" stroke="#8b0616" stroke-width="1.51"/><path d="M805,806L875,877L917,811Z" fill="#900a1a" stroke="#900a1a" stroke-width="1.51"/><path d="M785,936L875,877L805,806Z" fill="#900a1a" stroke="#900a1a" stroke-width="1.51"/><path d="M681,896L805,806L662,783Z" fill="#7e0617" stroke="#7e0617" stroke-width="1.51"/><path d="M1055,693L1086,615L1009,700Z" fill="#8e0716" stroke="#8e0716" stroke-width="1.51"/><path d="M992,520L1015,370L913,377Z" fill="#610110" stroke="#610110" stroke-width="1.51"/><path d="M1125,589L1065,459L992,520Z" fill="#740313" stroke="#740313" stroke-width="1.51"/><path d="M637,394L548,400L624,521Z" fill="#4e000b" stroke="#4e000b" stroke-width="1.51"/><path d="M530,519L464,527L545,570Z" fill="#660211" stroke="#660211" stroke-width="1.51"/><path d="M525,339L548,400L637,394Z" fill="#5d010f" stroke="#5d010f" stroke-width="1.51"/><path d="M1208,730L1125,589L1086,615Z" fill="#950717" stroke="#950717" stroke-width="1.51"/><path d="M970,817L1039,786L1009,700Z" fill="#9b0919" stroke="#9b0919" stroke-width="1.51"/><path d="M969,871L1039,786L970,817Z" fill="#a00c1b" stroke="#a00c1b" stroke-width="1.51"/><path d="M1065,459L1015,370L992,520Z" fill="#620210" stroke="#620210" stroke-width="1.51"/><path d="M913,377L854,276L796,327Z" fill="#640210" stroke="#640210" stroke-width="1.51"/><path d="M554,899L681,896L662,783Z" fill="#8d0a1a" stroke="#8d0a1a" stroke-width="1.51"/><path d="M796,327L629,291L762,402Z" fill="#53010d" stroke="#53010d" stroke-width="1.51"/><path d="M976,275L854,276L913,377Z" fill="#6e0312" stroke="#6e0312" stroke-width="1.51"/><path d="M875,877L969,871L917,811Z" fill="#9a0c1b" stroke="#9a0c1b" stroke-width="1.51"/><path d="M959,987L969,871L875,877Z" fill="#a30f1f" stroke="#a30f1f" stroke-width="1.51"/><path d="M504,402L464,527L530,519Z" fill="#5e010f" stroke="#5e010f" stroke-width="1.51"/><path d="M509,612L467,727L549,741Z" fill="#840515" stroke="#840515" stroke-width="1.51"/><path d="M1086,615L1125,589L992,520Z" fill="#7f0515" stroke="#7f0515" stroke-width="1.51"/><path d="M1208,730L1086,615L1055,693Z" fill="#990818" stroke="#990818" stroke-width="1.51"/><path d="M681,896L785,936L805,806Z" fill="#88091a" stroke="#88091a" stroke-width="1.51"/><path d="M728,220L629,291L796,327Z" fill="#5d010f" stroke="#5d010f" stroke-width="1.51"/><path d="M548,400L504,402L530,519Z" fill="#56010e" stroke="#56010e" stroke-width="1.51"/><path d="M525,339L504,402L548,400Z" fill="#610210" stroke="#610210" stroke-width="1.51"/><path d="M549,754L554,899L662,783Z" fill="#8c0918" stroke="#8c0918" stroke-width="1.51"/><path d="M355,663L467,727L509,612Z" fill="#870616" stroke="#870616" stroke-width="1.51"/><path d="M629,291L525,339L637,394Z" fill="#600110" stroke="#600110" stroke-width="1.51"/><path d="M785,936L822,962L875,877Z" fill="#970d1e" stroke="#970d1e" stroke-width="1.51"/><path d="M812,981L822,962L785,936Z" fill="#980f1f" stroke="#980f1f" stroke-width="1.51"/><path d="M1015,370L976,275L913,377Z" fill="#6f0313" stroke="#6f0313" stroke-width="1.51"/><path d="M1065,459L1081,367L1015,370Z" fill="#6f0312" stroke="#6f0312" stroke-width="1.51"/><path d="M1198,455L1081,367L1065,459Z" fill="#710313" stroke="#710313" stroke-width="1.51"/><path d="M1049,283L976,275L1015,370Z" fill="#7a0414" stroke="#7a0414" stroke-width="1.51"/><path d="M854,276L822,222L796,327Z" fill="#6a0211" stroke="#6a0211" stroke-width="1.51"/><path d="M953,143L822,222L854,276Z" fill="#7c0414" stroke="#7c0414" stroke-width="1.51"/><path d="M822,222L728,220L796,327Z" fill="#680311" stroke="#680311" stroke-width="1.51"/><path d="M409,278L436,336L430,238Z" fill="#800415" stroke="#800415" stroke-width="1.51"/><path d="M708,1016L812,981L785,936Z" fill="#960e1f" stroke="#960e1f" stroke-width="1.51"/><path d="M430,784L554,899L549,754Z" fill="#960a19" stroke="#960a19" stroke-width="1.51"/><path d="M1066,958L1064,893L969,871Z" fill="#b01120" stroke="#b01120" stroke-width="1.51"/><path d="M708,1016L785,936L681,896Z" fill="#8d0c1d" stroke="#8d0c1d" stroke-width="1.51"/><path d="M1039,786L1129,802L1055,693Z" fill="#a30a19" stroke="#a30a19" stroke-width="1.51"/><path d="M1064,893L1129,802L1039,786Z" fill="#ac0e1c" stroke="#ac0e1c" stroke-width="1.51"/><path d="M1064,893L1039,786L969,871Z" fill="#a70e1d" stroke="#a70e1d" stroke-width="1.51"/><path d="M959,987L875,877L822,962Z" fill="#a10f20" stroke="#a10f20" stroke-width="1.51"/><path d="M467,727L430,784L549,754Z" fill="#930717" stroke="#930717" stroke-width="1.51"/><path d="M355,663L430,784L467,727Z" fill="#950817" stroke="#950817" stroke-width="1.51"/><path d="M976,275L953,143L854,276Z" fill="#7f0514" stroke="#7f0514" stroke-width="1.51"/><path d="M1081,367L1049,283L1015,370Z" fill="#790414" stroke="#790414" stroke-width="1.51"/><path d="M554,899L599,973L681,896Z" fill="#970d1e" stroke="#970d1e" stroke-width="1.51"/><path d="M465,940L599,973L554,899Z" fill="#a21020" stroke="#a21020" stroke-width="1.51"/><path d="M831,1068L959,987L812,981Z" fill="#a71323" stroke="#a71323" stroke-width="1.51"/><path d="M812,981L959,987L822,962Z" fill="#a21121" stroke="#a21121" stroke-width="1.51"/><path d="M599,973L708,1016L681,896Z" fill="#950f1f" stroke="#950f1f" stroke-width="1.51"/><path d="M1081,367L1181,332L1049,283Z" fill="#830515" stroke="#830515" stroke-width="1.51"/><path d="M1125,589L1198,455L1065,459Z" fill="#780414" stroke="#780414" stroke-width="1.51"/><path d="M1242,575L1198,455L1125,589Z" fill="#870615" stroke="#870615" stroke-width="1.51"/><path d="M1129,802L1208,730L1055,693Z" fill="#a70b19" stroke="#a70b19" stroke-width="1.51"/><path d="M1064,893L1138,857L1129,802Z" fill="#b3101e" stroke="#b3101e" stroke-width="1.51"/><path d="M1066,958L1138,857L1064,893Z" fill="#b71221" stroke="#b71221" stroke-width="1.51"/><path d="M525,339L436,336L504,402Z" fill="#6a0311" stroke="#6a0311" stroke-width="1.51"/><path d="M366,379L339,516L464,527Z" fill="#6a0211" stroke="#6a0211" stroke-width="1.51"/><path d="M464,527L355,663L509,612Z" fill="#7a0414" stroke="#7a0414" stroke-width="1.51"/><path d="M436,336L525,339L430,238Z" fill="#770314" stroke="#770314" stroke-width="1.51"/><path d="M331,552L355,663L464,527Z" fill="#7e0514" stroke="#7e0514" stroke-width="1.51"/><path d="M1138,857L1208,730L1129,802Z" fill="#b20e1c" stroke="#b20e1c" stroke-width="1.51"/><path d="M728,220L687,156L629,291Z" fill="#6b0212" stroke="#6b0212" stroke-width="1.51"/><path d="M727,91L687,156L728,220Z" fill="#730313" stroke="#730313" stroke-width="1.51"/><path d="M727,91L728,220L822,222Z" fill="#740313" stroke="#740313" stroke-width="1.51"/><path d="M1208,730L1242,575L1125,589Z" fill="#990918" stroke="#990918" stroke-width="1.51"/><path d="M959,987L1066,958L969,871Z" fill="#af1222" stroke="#af1222" stroke-width="1.51"/><path d="M366,379L464,527L504,402Z" fill="#620210" stroke="#620210" stroke-width="1.51"/><path d="M1049,283L1010,192L976,275Z" fill="#860515" stroke="#860515" stroke-width="1.51"/><path d="M1112,164L1010,192L1049,283Z" fill="#920716" stroke="#920716" stroke-width="1.51"/><path d="M339,516L331,552L464,527Z" fill="#760313" stroke="#760313" stroke-width="1.51"/><path d="M1211,381L1181,332L1081,367Z" fill="#830515" stroke="#830515" stroke-width="1.51"/><path d="M1211,381L1081,367L1198,455Z" fill="#7c0514" stroke="#7c0514" stroke-width="1.51"/><path d="M1282,368L1211,381L1198,455Z" fill="#820616" stroke="#820616" stroke-width="1.51"/><path d="M599,973L566,1066L708,1016Z" fill="#a11122" stroke="#a11122" stroke-width="1.51"/><path d="M430,784L465,940L554,899Z" fill="#a20e1d" stroke="#a20e1d" stroke-width="1.51"/><path d="M373,919L465,940L430,784Z" fill="#aa101e" stroke="#aa101e" stroke-width="1.51"/><path d="M708,1016L831,1068L812,981Z" fill="#9d1222" stroke="#9d1222" stroke-width="1.51"/><path d="M959,987L985,1071L1066,958Z" fill="#b91525" stroke="#b91525" stroke-width="1.51"/><path d="M694,1122L831,1068L708,1016Z" fill="#9c1223" stroke="#9c1223" stroke-width="1.51"/><path d="M436,336L366,379L504,402Z" fill="#6e0312" stroke="#6e0312" stroke-width="1.51"/><path d="M339,516L256,560L331,552Z" fill="#810514" stroke="#810514" stroke-width="1.51"/><path d="M409,278L366,379L436,336Z" fill="#790414" stroke="#790414" stroke-width="1.51"/><path d="M1242,575L1261,514L1198,455Z" fill="#850716" stroke="#850716" stroke-width="1.51"/><path d="M1395,539L1261,514L1242,575Z" fill="#900a19" stroke="#900a19" stroke-width="1.51"/><path d="M1010,192L953,143L976,275Z" fill="#8b0616" stroke="#8b0616" stroke-width="1.51"/><path d="M1054,110L953,143L1010,192Z" fill="#990818" stroke="#990818" stroke-width="1.51"/><path d="M430,238L525,339L520,151Z" fill="#7f0515" stroke="#7f0515" stroke-width="1.51"/><path d="M520,151L525,339L629,291Z" fill="#730313" stroke="#730313" stroke-width="1.51"/><path d="M355,663L300,732L430,784Z" fill="#9d0918" stroke="#9d0918" stroke-width="1.51"/><path d="M256,560L300,732L355,663Z" fill="#960817" stroke="#960817" stroke-width="1.51"/><path d="M596,113L520,151L629,291Z" fill="#7f0514" stroke="#7f0514" stroke-width="1.51"/><path d="M917,70L727,91L822,222Z" fill="#830615" stroke="#830615" stroke-width="1.51"/><path d="M1181,332L1152,235L1049,283Z" fill="#8e0717" stroke="#8e0717" stroke-width="1.51"/><path d="M1241,158L1152,235L1318,252Z" fill="#a70c1b" stroke="#a70c1b" stroke-width="1.51"/><path d="M300,732L329,824L430,784Z" fill="#a70b1a" stroke="#a70b1a" stroke-width="1.51"/><path d="M831,1068L985,1071L959,987Z" fill="#b31626" stroke="#b31626" stroke-width="1.51"/><path d="M1208,730L1290,728L1242,575Z" fill="#a60c1b" stroke="#a60c1b" stroke-width="1.51"/><path d="M1332,770L1290,728L1309,842Z" fill="#be1320" stroke="#be1320" stroke-width="1.51"/><path d="M1290,728L1208,730L1309,842Z" fill="#b9111e" stroke="#b9111e" stroke-width="1.51"/><path d="M1161,1026L1138,857L1066,958Z" fill="#c11524" stroke="#c11524" stroke-width="1.51"/><path d="M596,113L629,291L687,156Z" fill="#770413" stroke="#770413" stroke-width="1.51"/><path d="M699,65L596,113L687,156Z" fill="#800616" stroke="#800616" stroke-width="1.51"/><path d="M465,940L500,1028L599,973Z" fill="#aa1222" stroke="#aa1222" stroke-width="1.51"/><path d="M400,994L500,1028L465,940Z" fill="#b41423" stroke="#b41423" stroke-width="1.51"/><path d="M500,1028L566,1066L599,973Z" fill="#ab1324" stroke="#ab1324" stroke-width="1.51"/><path d="M831,1068L741,1153L985,1071Z" fill="#aa1525" stroke="#aa1525" stroke-width="1.51"/><path d="M329,824L373,919L430,784Z" fill="#ac0f1d" stroke="#ac0f1d" stroke-width="1.51"/><path d="M331,552L256,560L355,663Z" fill="#890616" stroke="#890616" stroke-width="1.51"/><path d="M268,446L256,560L339,516Z" fill="#7c0414" stroke="#7c0414" stroke-width="1.51"/><path d="M268,446L339,516L366,379Z" fill="#6e0312" stroke="#6e0312" stroke-width="1.51"/><path d="M268,446L366,379L276,271Z" fill="#800514" stroke="#800514" stroke-width="1.51"/><path d="M566,1066L694,1122L708,1016Z" fill="#a11324" stroke="#a11324" stroke-width="1.51"/><path d="M727,91L699,65L687,156Z" fill="#7b0515" stroke="#7b0515" stroke-width="1.51"/><path d="M734,15L699,65L727,91Z" fill="#7f0718" stroke="#7f0718" stroke-width="1.51"/><path d="M953,143L917,70L822,222Z" fill="#8b0616" stroke="#8b0616" stroke-width="1.51"/><path d="M1152,235L1112,164L1049,283Z" fill="#960817" stroke="#960817" stroke-width="1.51"/><path d="M1054,110L917,70L953,143Z" fill="#990a19" stroke="#990a19" stroke-width="1.51"/><path d="M228,461L268,446L192,411Z" fill="#790514" stroke="#790514" stroke-width="1.51"/><path d="M1152,235L1150,138L1112,164Z" fill="#a40a19" stroke="#a40a19" stroke-width="1.51"/><path d="M1211,381L1282,368L1181,332Z" fill="#8a0717" stroke="#8a0717" stroke-width="1.51"/><path d="M1261,514L1282,368L1198,455Z" fill="#7b0616" stroke="#7b0616" stroke-width="1.51"/><path d="M1344,346L1282,368L1423,387Z" fill="#920b1b" stroke="#920b1b" stroke-width="1.51"/><path d="M985,1071L1079,1062L1066,958Z" fill="#c11827" stroke="#c11827" stroke-width="1.51"/><path d="M1183,1115L1079,1062L985,1071Z" fill="#ca1a29" stroke="#ca1a29" stroke-width="1.51"/><path d="M1112,164L1054,110L1010,192Z" fill="#9e0918" stroke="#9e0918" stroke-width="1.51"/><path d="M503,1132L741,1153L694,1122Z" fill="#a31324" stroke="#a31324" stroke-width="1.51"/><path d="M500,1028L503,1132L566,1066Z" fill="#b31626" stroke="#b31626" stroke-width="1.51"/><path d="M373,919L400,994L465,940Z" fill="#b51423" stroke="#b51423" stroke-width="1.51"/><path d="M241,965L400,994L373,919Z" fill="#c01624" stroke="#c01624" stroke-width="1.51"/><path d="M694,1122L741,1153L831,1068Z" fill="#9e1223" stroke="#9e1223" stroke-width="1.51"/><path d="M503,1132L694,1122L566,1066Z" fill="#aa1525" stroke="#aa1525" stroke-width="1.51"/><path d="M1079,1062L1161,1026L1066,958Z" fill="#c71827" stroke="#c71827" stroke-width="1.51"/><path d="M1290,728L1383,666L1242,575Z" fill="#a70e1d" stroke="#a70e1d" stroke-width="1.51"/><path d="M1309,842L1208,730L1138,857Z" fill="#ba111e" stroke="#ba111e" stroke-width="1.51"/><path d="M329,824L288,868L373,919Z" fill="#b6111f" stroke="#b6111f" stroke-width="1.51"/><path d="M224,842L288,868L329,824Z" fill="#b9111f" stroke="#b9111f" stroke-width="1.51"/><path d="M224,842L329,824L300,732Z" fill="#b20e1c" stroke="#b20e1c" stroke-width="1.51"/><path d="M1288,899L1309,842L1138,857Z" fill="#c31522" stroke="#c31522" stroke-width="1.51"/><path d="M146,787L224,842L300,732Z" fill="#b7101d" stroke="#b7101d" stroke-width="1.51"/><path d="M268,446L228,461L256,560Z" fill="#7d0514" stroke="#7d0514" stroke-width="1.51"/><path d="M276,271L366,379L409,278Z" fill="#840515" stroke="#840515" stroke-width="1.51"/><path d="M1112,164L1150,138L1054,110Z" fill="#a70b1a" stroke="#a70b1a" stroke-width="1.51"/><path d="M847,-36L734,15L917,70Z" fill="#930b1b" stroke="#930b1b" stroke-width="1.51"/><path d="M1241,158L1150,138L1152,235Z" fill="#a90c1a" stroke="#a90c1a" stroke-width="1.51"/><path d="M699,65L579,30L596,113Z" fill="#8a0819" stroke="#8a0819" stroke-width="1.51"/><path d="M596,113L579,30L520,151Z" fill="#8e0818" stroke="#8e0818" stroke-width="1.51"/><path d="M917,70L734,15L727,91Z" fill="#880919" stroke="#880919" stroke-width="1.51"/><path d="M847,-36L917,70L969,-69Z" fill="#a00f1f" stroke="#a00f1f" stroke-width="1.51"/><path d="M1161,1026L1288,899L1138,857Z" fill="#c81624" stroke="#c81624" stroke-width="1.51"/><path d="M1332,770L1383,666L1290,728Z" fill="#b7111f" stroke="#b7111f" stroke-width="1.51"/><path d="M1422,636L1383,666L1486,709Z" fill="#b51321" stroke="#b51321" stroke-width="1.51"/><path d="M1383,666L1332,770L1468,780Z" fill="#bf1421" stroke="#bf1421" stroke-width="1.51"/><path d="M711,-49L579,30L699,65Z" fill="#8b0b1b" stroke="#8b0b1b" stroke-width="1.51"/><path d="M333,169L409,278L430,238Z" fill="#8e0716" stroke="#8e0716" stroke-width="1.51"/><path d="M333,169L276,271L409,278Z" fill="#930717" stroke="#930717" stroke-width="1.51"/><path d="M333,169L430,238L346,140Z" fill="#9a0818" stroke="#9a0818" stroke-width="1.51"/><path d="M1318,252L1152,235L1181,332Z" fill="#9a0918" stroke="#9a0918" stroke-width="1.51"/><path d="M1395,539L1282,368L1261,514Z" fill="#840718" stroke="#840718" stroke-width="1.51"/><path d="M384,1081L503,1132L500,1028Z" fill="#bb1727" stroke="#bb1727" stroke-width="1.51"/><path d="M384,1081L500,1028L400,994Z" fill="#bd1727" stroke="#bd1727" stroke-width="1.51"/><path d="M1383,666L1395,539L1242,575Z" fill="#9d0c1c" stroke="#9d0c1c" stroke-width="1.51"/><path d="M241,965L384,1081L400,994Z" fill="#c71827" stroke="#c71827" stroke-width="1.51"/><path d="M140,724L300,732L256,560Z" fill="#a20b19" stroke="#a20b19" stroke-width="1.51"/><path d="M346,140L430,238L520,151Z" fill="#940717" stroke="#940717" stroke-width="1.51"/><path d="M228,461L145,481L256,560Z" fill="#830616" stroke="#830616" stroke-width="1.51"/><path d="M194,318L192,411L268,446Z" fill="#830616" stroke="#830616" stroke-width="1.51"/><path d="M194,318L268,446L276,271Z" fill="#890716" stroke="#890716" stroke-width="1.51"/><path d="M1318,252L1181,332L1282,368Z" fill="#940919" stroke="#940919" stroke-width="1.51"/><path d="M1015,-45L917,70L1054,110Z" fill="#a50e1d" stroke="#a50e1d" stroke-width="1.51"/><path d="M1344,346L1318,252L1282,368Z" fill="#980b1b" stroke="#980b1b" stroke-width="1.51"/><path d="M241,965L373,919L288,868Z" fill="#c01422" stroke="#c01422" stroke-width="1.51"/><path d="M1088,-1L1054,110L1138,1Z" fill="#b3101f" stroke="#b3101f" stroke-width="1.51"/><path d="M734,15L711,-49L699,65Z" fill="#85091a" stroke="#85091a" stroke-width="1.51"/><path d="M1383,666L1422,636L1395,539Z" fill="#a60f1f" stroke="#a60f1f" stroke-width="1.51"/><path d="M1395,539L1423,387L1282,368Z" fill="#87091a" stroke="#87091a" stroke-width="1.51"/><path d="M1367,889L1332,770L1309,842Z" fill="#c71724" stroke="#c71724" stroke-width="1.51"/><path d="M443,53L346,140L520,151Z" fill="#9d0a19" stroke="#9d0a19" stroke-width="1.51"/><path d="M333,169L275,210L276,271Z" fill="#9d0918" stroke="#9d0918" stroke-width="1.51"/><path d="M209,197L275,210L218,111Z" fill="#ad0d1a" stroke="#ad0d1a" stroke-width="1.51"/><path d="M426,-52L443,53L579,30Z" fill="#a40f1e" stroke="#a40f1e" stroke-width="1.51"/><path d="M579,30L443,53L520,151Z" fill="#970a1a" stroke="#970a1a" stroke-width="1.51"/><path d="M1422,636L1435,566L1395,539Z" fill="#a10f1f" stroke="#a10f1f" stroke-width="1.51"/><path d="M1344,346L1462,268L1318,252Z" fill="#a40e1e" stroke="#a40e1e" stroke-width="1.51"/><path d="M1288,899L1367,889L1309,842Z" fill="#cb1826" stroke="#cb1826" stroke-width="1.51"/><path d="M1326,973L1367,889L1288,899Z" fill="#d21b29" stroke="#d21b29" stroke-width="1.51"/><path d="M847,-36L711,-49L734,15Z" fill="#8f0b1d" stroke="#8f0b1d" stroke-width="1.51"/><path d="M1161,1026L1257,1052L1288,899Z" fill="#d41b29" stroke="#d41b29" stroke-width="1.51"/><path d="M1079,1062L1183,1115L1161,1026Z" fill="#d21b2a" stroke="#d21b2a" stroke-width="1.51"/><path d="M741,1153L1183,1115L985,1071Z" fill="#ba1727" stroke="#ba1727" stroke-width="1.51"/><path d="M192,411L145,481L228,461Z" fill="#7a0616" stroke="#7a0616" stroke-width="1.51"/><path d="M92,459L145,481L192,411Z" fill="#7e0717" stroke="#7e0717" stroke-width="1.51"/><path d="M1183,1115L1257,1052L1161,1026Z" fill="#d91d2c" stroke="#d91d2c" stroke-width="1.51"/><path d="M209,197L194,318L276,271Z" fill="#9c0919" stroke="#9c0919" stroke-width="1.51"/><path d="M1257,1052L1326,973L1288,899Z" fill="#d61c2b" stroke="#d61c2b" stroke-width="1.51"/><path d="M224,842L241,965L288,868Z" fill="#c21422" stroke="#c21422" stroke-width="1.51"/><path d="M185,868L241,965L224,842Z" fill="#c51623" stroke="#c51623" stroke-width="1.51"/><path d="M122,632L140,724L256,560Z" fill="#a00c1b" stroke="#a00c1b" stroke-width="1.51"/><path d="M146,787L185,868L224,842Z" fill="#c01421" stroke="#c01421" stroke-width="1.51"/><path d="M1138,1L1054,110L1150,138Z" fill="#af0e1c" stroke="#af0e1c" stroke-width="1.51"/><path d="M1438,407L1423,387L1395,539Z" fill="#890a1b" stroke="#890a1b" stroke-width="1.51"/><path d="M145,481L122,632L256,560Z" fill="#900919" stroke="#900919" stroke-width="1.51"/><path d="M65,719L146,787L140,724Z" fill="#ba111f" stroke="#ba111f" stroke-width="1.51"/><path d="M140,724L146,787L300,732Z" fill="#b40f1c" stroke="#b40f1c" stroke-width="1.51"/><path d="M1266,72L1138,1L1150,138Z" fill="#ba111e" stroke="#ba111e" stroke-width="1.51"/><path d="M1318,252L1326,186L1241,158Z" fill="#af0f1d" stroke="#af0f1d" stroke-width="1.51"/><path d="M1462,268L1326,186L1318,252Z" fill="#ae101f" stroke="#ae101f" stroke-width="1.51"/><path d="M1423,387L1462,268L1344,346Z" fill="#9e0e1e" stroke="#9e0e1e" stroke-width="1.51"/><path d="M1503,458L1438,407L1395,539Z" fill="#8d0c1d" stroke="#8d0c1d" stroke-width="1.51"/><path d="M1088,-1L1015,-45L1054,110Z" fill="#af111f" stroke="#af111f" stroke-width="1.51"/><path d="M748,-114L684,-86L711,-49Z" fill="#910e1f" stroke="#910e1f" stroke-width="1.51"/><path d="M1015,-45L969,-69L917,70Z" fill="#a81020" stroke="#a81020" stroke-width="1.51"/><path d="M1015,-45L1113,-152L969,-69Z" fill="#ba1625" stroke="#ba1625" stroke-width="1.51"/><path d="M1088,-1L1113,-152L1015,-45Z" fill="#bd1524" stroke="#bd1524" stroke-width="1.51"/><path d="M1266,72L1150,138L1241,158Z" fill="#b60f1d" stroke="#b60f1d" stroke-width="1.51"/><path d="M711,-49L684,-86L579,30Z" fill="#920d1d" stroke="#920d1d" stroke-width="1.51"/><path d="M748,-114L711,-49L847,-36Z" fill="#940d1f" stroke="#940d1f" stroke-width="1.51"/><path d="M1183,1115L1232,1131L1257,1052Z" fill="#db1e2d" stroke="#db1e2d" stroke-width="1.51"/><path d="M1389,1131L1437,1008L1326,973Z" fill="#e62231" stroke="#e62231" stroke-width="1.51"/><path d="M741,1153L1232,1131L1183,1115Z" fill="#c61928" stroke="#c61928" stroke-width="1.51"/><path d="M275,210L209,197L276,271Z" fill="#a00a18" stroke="#a00a18" stroke-width="1.51"/><path d="M79,440L92,459L192,411Z" fill="#820818" stroke="#820818" stroke-width="1.51"/><path d="M218,111L275,210L333,169Z" fill="#ab0c19" stroke="#ab0c19" stroke-width="1.51"/><path d="M218,111L333,169L346,140Z" fill="#ab0c1a" stroke="#ab0c1a" stroke-width="1.51"/><path d="M1422,636L1554,646L1435,566Z" fill="#ad1222" stroke="#ad1222" stroke-width="1.51"/><path d="M1435,566L1503,458L1395,539Z" fill="#980e1e" stroke="#980e1e" stroke-width="1.51"/><path d="M1367,889L1468,780L1332,770Z" fill="#c91725" stroke="#c91725" stroke-width="1.51"/><path d="M1511,936L1468,780L1367,889Z" fill="#d61c2a" stroke="#d61c2a" stroke-width="1.51"/><path d="M1437,1008L1367,889L1326,973Z" fill="#db1e2d" stroke="#db1e2d" stroke-width="1.51"/><path d="M1468,780L1486,709L1383,666Z" fill="#bf1523" stroke="#bf1523" stroke-width="1.51"/><path d="M1326,186L1266,72L1241,158Z" fill="#b9111e" stroke="#b9111e" stroke-width="1.51"/><path d="M145,481L7,536L122,632Z" fill="#950c1b" stroke="#950c1b" stroke-width="1.51"/><path d="M122,632L65,719L140,724Z" fill="#b0101e" stroke="#b0101e" stroke-width="1.51"/><path d="M79,440L192,411L194,318Z" fill="#880818" stroke="#880818" stroke-width="1.51"/><path d="M897,-109L748,-114L847,-36Z" fill="#9f1021" stroke="#9f1021" stroke-width="1.51"/><path d="M969,-69L897,-109L847,-36Z" fill="#a71221" stroke="#a71221" stroke-width="1.51"/><path d="M1113,-152L897,-109L969,-69Z" fill="#b81625" stroke="#b81625" stroke-width="1.51"/><path d="M44,630L65,719L122,632Z" fill="#ad101f" stroke="#ad101f" stroke-width="1.51"/><path d="M30,338L79,440L194,318Z" fill="#920b1b" stroke="#920b1b" stroke-width="1.51"/><path d="M1555,487L1503,458L1435,566Z" fill="#990f1f" stroke="#990f1f" stroke-width="1.51"/><path d="M1544,359L1462,268L1423,387Z" fill="#a31020" stroke="#a31020" stroke-width="1.51"/><path d="M1397,70L1322,15L1266,72Z" fill="#c91724" stroke="#c91724" stroke-width="1.51"/><path d="M44,630L122,632L7,536Z" fill="#a20e1e" stroke="#a20e1e" stroke-width="1.51"/><path d="M146,787L50,838L185,868Z" fill="#c51623" stroke="#c51623" stroke-width="1.51"/><path d="M103,1013L198,1032L241,965Z" fill="#d71c2b" stroke="#d71c2b" stroke-width="1.51"/><path d="M103,1013L241,965L185,868Z" fill="#d01a28" stroke="#d01a28" stroke-width="1.51"/><path d="M241,965L242,1094L384,1081Z" fill="#d21b2a" stroke="#d21b2a" stroke-width="1.51"/><path d="M384,1081L242,1094L503,1132Z" fill="#c71929" stroke="#c71929" stroke-width="1.51"/><path d="M198,1032L242,1094L241,965Z" fill="#d71c2b" stroke="#d71c2b" stroke-width="1.51"/><path d="M443,53L295,20L346,140Z" fill="#ac0e1c" stroke="#ac0e1c" stroke-width="1.51"/><path d="M551,-116L426,-52L579,30Z" fill="#a61020" stroke="#a61020" stroke-width="1.51"/><path d="M551,-116L579,30L684,-86Z" fill="#9c0f1f" stroke="#9c0f1f" stroke-width="1.51"/><path d="M7,536L145,481L92,459Z" fill="#8b0a1a" stroke="#8b0a1a" stroke-width="1.51"/><path d="M1544,359L1423,387L1438,407Z" fill="#980f1f" stroke="#980f1f" stroke-width="1.51"/><path d="M58,228L30,338L194,318Z" fill="#a00d1d" stroke="#a00d1d" stroke-width="1.51"/><path d="M295,20L218,111L346,140Z" fill="#b40f1c" stroke="#b40f1c" stroke-width="1.51"/><path d="M748,-114L551,-116L684,-86Z" fill="#9b1121" stroke="#9b1121" stroke-width="1.51"/><path d="M1486,709L1554,646L1422,636Z" fill="#b81423" stroke="#b81423" stroke-width="1.51"/><path d="M1468,780L1539,696L1486,709Z" fill="#c61725" stroke="#c61725" stroke-width="1.51"/><path d="M1617,835L1539,696L1468,780Z" fill="#d11a28" stroke="#d11a28" stroke-width="1.51"/><path d="M324,-34L295,20L443,53Z" fill="#b51120" stroke="#b51120" stroke-width="1.51"/><path d="M1539,696L1554,646L1486,709Z" fill="#c01625" stroke="#c01625" stroke-width="1.51"/><path d="M1503,458L1544,359L1438,407Z" fill="#960f1f" stroke="#960f1f" stroke-width="1.51"/><path d="M1389,1131L1326,973L1257,1052Z" fill="#e32130" stroke="#e32130" stroke-width="1.51"/><path d="M1554,646L1555,487L1435,566Z" fill="#a71222" stroke="#a71222" stroke-width="1.51"/><path d="M-65,842L50,838L65,719Z" fill="#ca1825" stroke="#ca1825" stroke-width="1.51"/><path d="M65,719L50,838L146,787Z" fill="#c21422" stroke="#c21422" stroke-width="1.51"/><path d="M198,1032L166,1102L242,1094Z" fill="#dc1e2d" stroke="#dc1e2d" stroke-width="1.51"/><path d="M426,-52L324,-34L443,53Z" fill="#b21221" stroke="#b21221" stroke-width="1.51"/><path d="M150,31L141,80L218,111Z" fill="#c11421" stroke="#c11421" stroke-width="1.51"/><path d="M390,-90L324,-34L426,-52Z" fill="#ba1524" stroke="#ba1524" stroke-width="1.51"/><path d="M79,440L7,536L92,459Z" fill="#8a0a1a" stroke="#8a0a1a" stroke-width="1.51"/><path d="M44,630L-51,664L65,719Z" fill="#b41221" stroke="#b41221" stroke-width="1.51"/><path d="M3,410L7,536L79,440Z" fill="#8a0b1b" stroke="#8a0b1b" stroke-width="1.51"/><path d="M1138,1L1113,-152L1088,-1Z" fill="#c01524" stroke="#c01524" stroke-width="1.51"/><path d="M1266,72L1270,-97L1138,1Z" fill="#c81724" stroke="#c81724" stroke-width="1.51"/><path d="M1397,70L1266,72L1326,186Z" fill="#c11421" stroke="#c11421" stroke-width="1.51"/><path d="M1555,487L1544,359L1503,458Z" fill="#940f20" stroke="#940f20" stroke-width="1.51"/><path d="M1462,268L1435,135L1326,186Z" fill="#ba1321" stroke="#ba1321" stroke-width="1.51"/><path d="M424,-150L390,-90L426,-52Z" fill="#ba1625" stroke="#ba1625" stroke-width="1.51"/><path d="M1482,180L1435,135L1462,268Z" fill="#be1523" stroke="#be1523" stroke-width="1.51"/><path d="M1437,1008L1511,936L1367,889Z" fill="#df1f2e" stroke="#df1f2e" stroke-width="1.51"/><path d="M1539,696L1669,644L1554,646Z" fill="#c01727" stroke="#c01727" stroke-width="1.51"/><path d="M58,228L194,318L209,197Z" fill="#a50d1b" stroke="#a50d1b" stroke-width="1.51"/><path d="M58,228L209,197L141,80Z" fill="#b6111e" stroke="#b6111e" stroke-width="1.51"/><path d="M103,1013L166,1102L198,1032Z" fill="#df1f2e" stroke="#df1f2e" stroke-width="1.51"/><path d="M242,1094L100,1117L503,1132Z" fill="#d41c2b" stroke="#d41c2b" stroke-width="1.51"/><path d="M31,920L103,1013L185,868Z" fill="#d41c2a" stroke="#d41c2a" stroke-width="1.51"/><path d="M1435,135L1397,70L1326,186Z" fill="#c31523" stroke="#c31523" stroke-width="1.51"/><path d="M1588,1024L1529,927L1511,936Z" fill="#eb2333" stroke="#eb2333" stroke-width="1.51"/><path d="M1232,1131L1389,1131L1257,1052Z" fill="#e1202f" stroke="#e1202f" stroke-width="1.51"/><path d="M1604,1146L1389,1131L1232,1131Z" fill="#eb2433" stroke="#eb2433" stroke-width="1.51"/><path d="M30,338L3,410L79,440Z" fill="#910c1c" stroke="#910c1c" stroke-width="1.51"/><path d="M1435,135L1467,29L1397,70Z" fill="#ce1927" stroke="#ce1927" stroke-width="1.51"/><path d="M1619,226L1482,180L1462,268Z" fill="#bd1625" stroke="#bd1625" stroke-width="1.51"/><path d="M-142,556L-20,580L7,536Z" fill="#a31021" stroke="#a31021" stroke-width="1.51"/><path d="M7,536L-20,580L44,630Z" fill="#a30f1f" stroke="#a30f1f" stroke-width="1.51"/><path d="M1485,1059L1511,936L1437,1008Z" fill="#ea2433" stroke="#ea2433" stroke-width="1.51"/><path d="M1511,936L1529,927L1468,780Z" fill="#dc1f2d" stroke="#dc1f2d" stroke-width="1.51"/><path d="M1174,-131L1113,-152L1138,1Z" fill="#c91827" stroke="#c91827" stroke-width="1.51"/><path d="M897,-109L1113,-152L748,-114Z" fill="#b01525" stroke="#b01525" stroke-width="1.51"/><path d="M748,-114L424,-150L551,-116Z" fill="#a81324" stroke="#a81324" stroke-width="1.51"/><path d="M1174,-131L1138,1L1270,-97Z" fill="#ce1927" stroke="#ce1927" stroke-width="1.51"/><path d="M30,338L-57,278L3,410Z" fill="#9f0f1f" stroke="#9f0f1f" stroke-width="1.51"/><path d="M141,80L209,197L218,111Z" fill="#b8101e" stroke="#b8101e" stroke-width="1.51"/><path d="M1270,-97L1266,72L1322,15Z" fill="#cc1826" stroke="#cc1826" stroke-width="1.51"/><path d="M103,1013L100,1117L166,1102Z" fill="#e32130" stroke="#e32130" stroke-width="1.51"/><path d="M50,838L31,920L185,868Z" fill="#ce1928" stroke="#ce1928" stroke-width="1.51"/><path d="M-65,842L31,920L50,838Z" fill="#d41b2a" stroke="#d41b2a" stroke-width="1.51"/><path d="M282,-76L295,20L324,-34Z" fill="#c11523" stroke="#c11523" stroke-width="1.51"/><path d="M150,31L218,111L295,20Z" fill="#bf1320" stroke="#bf1320" stroke-width="1.51"/><path d="M1544,359L1579,346L1462,268Z" fill="#aa1322" stroke="#aa1322" stroke-width="1.51"/><path d="M1555,487L1579,346L1544,359Z" fill="#9e1122" stroke="#9e1122" stroke-width="1.51"/><path d="M1669,333L1579,346L1692,374Z" fill="#ad1525" stroke="#ad1525" stroke-width="1.51"/><path d="M390,-90L282,-76L324,-34Z" fill="#c21625" stroke="#c21625" stroke-width="1.51"/><path d="M551,-116L424,-150L426,-52Z" fill="#b51524" stroke="#b51524" stroke-width="1.51"/><path d="M1113,-152L424,-150L748,-114Z" fill="#9c1122" stroke="#9c1122" stroke-width="1.51"/><path d="M1389,1131L1485,1059L1437,1008Z" fill="#ee2534" stroke="#ee2534" stroke-width="1.51"/><path d="M424,-150L282,-76L390,-90Z" fill="#c21726" stroke="#c21726" stroke-width="1.51"/><path d="M1402,-44L1322,15L1397,70Z" fill="#d21a29" stroke="#d21a29" stroke-width="1.51"/><path d="M1402,-44L1270,-97L1322,15Z" fill="#d51c2a" stroke="#d51c2a" stroke-width="1.51"/><path d="M-20,580L-51,664L44,630Z" fill="#ad1121" stroke="#ad1121" stroke-width="1.51"/><path d="M-132,725L-51,664L-142,556Z" fill="#ba1625" stroke="#ba1625" stroke-width="1.51"/><path d="M141,80L49,87L58,228Z" fill="#c11421" stroke="#c11421" stroke-width="1.51"/><path d="M188,-79L150,31L295,20Z" fill="#c81724" stroke="#c81724" stroke-width="1.51"/><path d="M1554,646L1669,644L1555,487Z" fill="#b31525" stroke="#b31525" stroke-width="1.51"/><path d="M1529,927L1617,835L1468,780Z" fill="#db1e2c" stroke="#db1e2c" stroke-width="1.51"/><path d="M1705,951L1617,835L1529,927Z" fill="#ea2333" stroke="#ea2333" stroke-width="1.51"/><path d="M-5,1050L100,1117L103,1013Z" fill="#e82332" stroke="#e82332" stroke-width="1.51"/><path d="M166,1102L100,1117L242,1094Z" fill="#df1f2e" stroke="#df1f2e" stroke-width="1.51"/><path d="M503,1132L100,1117L741,1153Z" fill="#be1827" stroke="#be1827" stroke-width="1.51"/><path d="M1715,687L1669,644L1539,696Z" fill="#c71928" stroke="#c71928" stroke-width="1.51"/><path d="M1541,76L1467,29L1435,135Z" fill="#d21b29" stroke="#d21b29" stroke-width="1.51"/><path d="M1541,76L1435,135L1482,180Z" fill="#cc1826" stroke="#cc1826" stroke-width="1.51"/><path d="M1467,29L1402,-44L1397,70Z" fill="#d51c2a" stroke="#d51c2a" stroke-width="1.51"/><path d="M-51,664L-65,842L65,719Z" fill="#c51624" stroke="#c51624" stroke-width="1.51"/><path d="M31,920L-5,1050L103,1013Z" fill="#e2212f" stroke="#e2212f" stroke-width="1.51"/><path d="M78,-7L49,87L141,80Z" fill="#ca1825" stroke="#ca1825" stroke-width="1.51"/><path d="M58,228L-57,278L30,338Z" fill="#aa1020" stroke="#aa1020" stroke-width="1.51"/><path d="M-159,505L-142,556L7,536Z" fill="#a21122" stroke="#a21122" stroke-width="1.51"/><path d="M78,-7L141,80L150,31Z" fill="#ca1725" stroke="#ca1725" stroke-width="1.51"/><path d="M282,-76L188,-79L295,20Z" fill="#c91725" stroke="#c91725" stroke-width="1.51"/><path d="M424,-150L188,-79L282,-76Z" fill="#cb1927" stroke="#cb1927" stroke-width="1.51"/><path d="M-21,145L-22,197L58,228Z" fill="#bd1422" stroke="#bd1422" stroke-width="1.51"/><path d="M-51,664L-132,725L-65,842Z" fill="#cb1827" stroke="#cb1827" stroke-width="1.51"/><path d="M-22,197L-57,278L58,228Z" fill="#b51322" stroke="#b51322" stroke-width="1.51"/><path d="M-65,842L-65,895L31,920Z" fill="#da1e2c" stroke="#da1e2c" stroke-width="1.51"/><path d="M1485,1059L1588,1024L1511,936Z" fill="#ef2535" stroke="#ef2535" stroke-width="1.51"/><path d="M1715,687L1715,548L1669,644Z" fill="#bc1827" stroke="#bc1827" stroke-width="1.51"/><path d="M1604,1146L1588,1024L1485,1059Z" fill="#f92939" stroke="#f92939" stroke-width="1.51"/><path d="M1669,333L1619,226L1579,346Z" fill="#b61627" stroke="#b61627" stroke-width="1.51"/><path d="M1579,346L1619,226L1462,268Z" fill="#b51524" stroke="#b51524" stroke-width="1.51"/><path d="M1619,226L1541,76L1482,180Z" fill="#cd1927" stroke="#cd1927" stroke-width="1.51"/><path d="M1467,29L1528,-43L1402,-44Z" fill="#de1f2e" stroke="#de1f2e" stroke-width="1.51"/><path d="M1402,-44L1340,-135L1270,-97Z" fill="#dc1f2d" stroke="#dc1f2d" stroke-width="1.51"/><path d="M1270,-97L1340,-135L1174,-131Z" fill="#da1e2c" stroke="#da1e2c" stroke-width="1.51"/><path d="M1174,-131L1340,-135L1113,-152Z" fill="#d71c2b" stroke="#d71c2b" stroke-width="1.51"/><path d="M1519,-75L1340,-135L1402,-44Z" fill="#e32130" stroke="#e32130" stroke-width="1.51"/><path d="M-65,895L-5,1050L31,920Z" fill="#e22030" stroke="#e22030" stroke-width="1.51"/><path d="M1692,374L1579,346L1555,487Z" fill="#a11324" stroke="#a11324" stroke-width="1.51"/><path d="M-22,197L-149,179L-57,278Z" fill="#be1625" stroke="#be1625" stroke-width="1.51"/><path d="M49,87L-21,145L58,228Z" fill="#c21523" stroke="#c21523" stroke-width="1.51"/><path d="M-94,125L-21,145L-90,20Z" fill="#d31b29" stroke="#d31b29" stroke-width="1.51"/><path d="M1715,687L1539,696L1617,835Z" fill="#d31c2a" stroke="#d31c2a" stroke-width="1.51"/><path d="M1669,644L1715,548L1555,487Z" fill="#af1526" stroke="#af1526" stroke-width="1.51"/><path d="M1669,333L1639,220L1619,226Z" fill="#bf1828" stroke="#bf1828" stroke-width="1.51"/><path d="M1619,226L1639,220L1541,76Z" fill="#ce1a29" stroke="#ce1a29" stroke-width="1.51"/><path d="M1669,333L1696,66L1639,220Z" fill="#ca1a29" stroke="#ca1a29" stroke-width="1.51"/><path d="M1715,548L1692,374L1555,487Z" fill="#9d1223" stroke="#9d1223" stroke-width="1.51"/><path d="M-65,842L-183,923L-65,895Z" fill="#e1202f" stroke="#e1202f" stroke-width="1.51"/><path d="M-102,1100L-3,1110L-5,1050Z" fill="#f12636" stroke="#f12636" stroke-width="1.51"/><path d="M-142,556L-51,664L-20,580Z" fill="#ad1222" stroke="#ad1222" stroke-width="1.51"/><path d="M1719,847L1715,687L1617,835Z" fill="#dc1e2d" stroke="#dc1e2d" stroke-width="1.51"/><path d="M188,-79L78,-7L150,31Z" fill="#cf1a27" stroke="#cf1a27" stroke-width="1.51"/><path d="M-136,437L3,410L-159,345Z" fill="#9c1021" stroke="#9c1021" stroke-width="1.51"/><path d="M-136,437L7,536L3,410Z" fill="#8f0d1e" stroke="#8f0d1e" stroke-width="1.51"/><path d="M-159,345L3,410L-57,278Z" fill="#a41121" stroke="#a41121" stroke-width="1.51"/><path d="M-102,1100L-5,1050L-179,1029Z" fill="#f62838" stroke="#f62838" stroke-width="1.51"/><path d="M-5,1050L-3,1110L100,1117Z" fill="#eb2433" stroke="#eb2433" stroke-width="1.51"/><path d="M-136,437L-159,505L7,536Z" fill="#991020" stroke="#991020" stroke-width="1.51"/><path d="M-142,556L-152,789L-132,725Z" fill="#c51827" stroke="#c51827" stroke-width="1.51"/><path d="M-132,725L-152,789L-65,842Z" fill="#d41b2a" stroke="#d41b2a" stroke-width="1.51"/><path d="M-159,505L-152,789L-142,556Z" fill="#b71626" stroke="#b71626" stroke-width="1.51"/><path d="M1715,687L1719,847L1715,548Z" fill="#ca1a29" stroke="#ca1a29" stroke-width="1.51"/><path d="M1705,951L1719,847L1617,835Z" fill="#e72332" stroke="#e72332" stroke-width="1.51"/><path d="M1622,-83L1528,-43L1541,76Z" fill="#e62231" stroke="#e62231" stroke-width="1.51"/><path d="M1541,76L1528,-43L1467,29Z" fill="#dd1f2d" stroke="#dd1f2d" stroke-width="1.51"/><path d="M-94,125L-22,197L-21,145Z" fill="#c81725" stroke="#c81725" stroke-width="1.51"/><path d="M-149,179L-159,345L-57,278Z" fill="#b81625" stroke="#b81625" stroke-width="1.51"/><path d="M-136,437L-159,345L-159,505Z" fill="#9a1122" stroke="#9a1122" stroke-width="1.51"/><path d="M1588,1024L1705,951L1529,927Z" fill="#f12636" stroke="#f12636" stroke-width="1.51"/><path d="M1588,1024L1677,1053L1705,951Z" fill="#f92939" stroke="#f92939" stroke-width="1.51"/><path d="M1389,1131L1604,1146L1485,1059Z" fill="#f32737" stroke="#f32737" stroke-width="1.51"/><path d="M1675,1153L1604,1146L1232,1131Z" fill="#f42737" stroke="#f42737" stroke-width="1.51"/><path d="M1622,-83L1519,-75L1528,-43Z" fill="#ec2434" stroke="#ec2434" stroke-width="1.51"/><path d="M1528,-43L1519,-75L1402,-44Z" fill="#e42231" stroke="#e42231" stroke-width="1.51"/><path d="M1604,1146L1677,1053L1588,1024Z" fill="#fe2b3c" stroke="#fe2b3c" stroke-width="1.51"/><path d="M-90,20L-21,145L49,87Z" fill="#d01a28" stroke="#d01a28" stroke-width="1.51"/><path d="M78,-7L-11,-18L49,87Z" fill="#d31b29" stroke="#d31b29" stroke-width="1.51"/><path d="M18,-67L-11,-18L78,-7Z" fill="#db1e2d" stroke="#db1e2d" stroke-width="1.51"/><path d="M424,-150L18,-67L188,-79Z" fill="#d41b2a" stroke="#d41b2a" stroke-width="1.51"/><path d="M188,-79L18,-67L78,-7Z" fill="#d81d2b" stroke="#d81d2b" stroke-width="1.51"/><path d="M-179,1029L-5,1050L-65,895Z" fill="#ed2534" stroke="#ed2534" stroke-width="1.51"/><path d="M-159,345L-183,923L-159,505Z" fill="#b41625" stroke="#b41625" stroke-width="1.51"/><path d="M-159,505L-183,923L-152,789Z" fill="#d21b29" stroke="#d21b29" stroke-width="1.51"/><path d="M-152,789L-183,923L-65,842Z" fill="#df1f2e" stroke="#df1f2e" stroke-width="1.51"/><path d="M-90,20L49,87L-11,-18Z" fill="#d71d2b" stroke="#d71d2b" stroke-width="1.51"/><path d="M-90,20L-149,179L-94,125Z" fill="#d51c2a" stroke="#d51c2a" stroke-width="1.51"/><path d="M-94,125L-149,179L-22,197Z" fill="#c91826" stroke="#c91826" stroke-width="1.51"/><path d="M1604,1146L1675,1153L1677,1053Z" fill="#ff2b3c" stroke="#ff2b3c" stroke-width="1.51"/><path d="M1677,1053L1675,1153L1705,951Z" fill="#fe2b3c" stroke="#fe2b3c" stroke-width="1.51"/><path d="M741,1153L1675,1153L1232,1131Z" fill="#da1d2c" stroke="#da1d2c" stroke-width="1.51"/><path d="M1639,220L1696,66L1541,76Z" fill="#da1d2c" stroke="#da1d2c" stroke-width="1.51"/><path d="M1692,374L1696,66L1669,333Z" fill="#c01828" stroke="#c01828" stroke-width="1.51"/><path d="M1711,-11L1696,66L1692,374Z" fill="#d71d2b" stroke="#d71d2b" stroke-width="1.51"/><path d="M-27,-67L-90,20L-11,-18Z" fill="#e0202f" stroke="#e0202f" stroke-width="1.51"/><path d="M18,-67L-27,-67L-11,-18Z" fill="#e1202f" stroke="#e1202f" stroke-width="1.51"/><path d="M424,-150L-27,-67L18,-67Z" fill="#da1d2c" stroke="#da1d2c" stroke-width="1.51"/><path d="M-183,923L-179,1029L-65,895Z" fill="#ec2534" stroke="#ec2534" stroke-width="1.51"/><path d="M1696,66L1622,-83L1541,76Z" fill="#e72331" stroke="#e72331" stroke-width="1.51"/><path d="M1519,-75L1622,-83L1340,-135Z" fill="#eb2433" stroke="#eb2433" stroke-width="1.51"/><path d="M1696,66L1711,-11L1622,-83Z" fill="#eb2433" stroke="#eb2433" stroke-width="1.51"/><path d="M1715,548L1711,-11L1692,374Z" fill="#b61627" stroke="#b61627" stroke-width="1.51"/><path d="M1719,847L1711,-11L1715,548Z" fill="#9b1123" stroke="#9b1123" stroke-width="1.51"/><path d="M1711,-11L1670,-82L1622,-83Z" fill="#f22736" stroke="#f22736" stroke-width="1.51"/><path d="M1622,-83L1670,-82L1340,-135Z" fill="#f02636" stroke="#f02636" stroke-width="1.51"/><path d="M-27,-67L-124,-61L-90,20Z" fill="#e52231" stroke="#e52231" stroke-width="1.51"/><path d="M-90,20L-124,-61L-149,179Z" fill="#de1f2e" stroke="#de1f2e" stroke-width="1.51"/><path d="M424,-150L-124,-61L-27,-67Z" fill="#dd1f2e" stroke="#dd1f2e" stroke-width="1.51"/></svg>