<svg xmlns="http://www.w3.org/2000/svg" width="1440" height="900"><path d="M775,535L749,642L829,642Z" fill="#0a5e22" stroke="#0a5e22" stroke-width="1.51"/><path d="M749,642L772,722L829,642Z" fill="#0b6223" stroke="#0b6223" stroke-width="1.51"/><path d="M749,642L706,693L772,722Z" fill="#0a6123" stroke="#0a6123" stroke-width="1.51"/><path d="M635,593L706,693L749,642Z" fill="#0a5e22" stroke="#0a5e22" stroke-width="1.51"/><path d="M829,642L895,500L775,535Z" fill="#0a5c22" stroke="#0a5c22" stroke-width="1.51"/><path d="M829,642L929,552L895,500Z" fill="#0b5f23" stroke="#0b5f23" stroke-width="1.51"/><path d="M896,732L929,552L829,642Z" fill="#0b6525" stroke="#0b6525" stroke-width="1.51"/><path d="M775,535L635,593L749,642Z" fill="#095a20" stroke="#095a20" stroke-width="1.51"/><path d="M772,722L896,732L829,642Z" fill="#0c6625" stroke="#0c6625" stroke-width="1.51"/><path d="M775,535L624,521L635,593Z" fill="#0a5920" stroke="#0a5920" stroke-width="1.51"/><path d="M762,402L624,521L775,535Z" fill="#08521e" stroke="#08521e" stroke-width="1.51"/><path d="M895,500L762,402L775,535Z" fill="#09561f" stroke="#09561f" stroke-width="1.51"/><path d="M772,722L805,806L896,732Z" fill="#0d6a27" stroke="#0d6a27" stroke-width="1.51"/><path d="M662,783L805,806L772,722Z" fill="#0c6826" stroke="#0c6826" stroke-width="1.51"/><path d="M895,500L913,377L762,402Z" fill="#0a5820" stroke="#0a5820" stroke-width="1.51"/><path d="M929,552L992,520L895,500Z" fill="#0b5f23" stroke="#0b5f23" stroke-width="1.51"/><path d="M1086,615L992,520L929,552Z" fill="#0c6525" stroke="#0c6525" stroke-width="1.51"/><path d="M706,693L662,783L772,722Z" fill="#0b6424" stroke="#0b6424" stroke-width="1.51"/><path d="M549,741L662,783L706,693Z" fill="#0c6826" stroke="#0c6826" stroke-width="1.51"/><path d="M549,741L706,693L635,593Z" fill="#0b6424" stroke="#0b6424" stroke-width="1.51"/><path d="M896,732L1009,700L929,552Z" fill="#0c6926" stroke="#0c6926" stroke-width="1.51"/><path d="M970,817L1009,700L896,732Z" fill="#0e7029" stroke="#0e7029" stroke-width="1.51"/><path d="M624,521L545,570L635,593Z" fill="#0b5d22" stroke="#0b5d22" stroke-width="1.51"/><path d="M530,519L545,570L624,521Z" fill="#0a5d21" stroke="#0a5d21" stroke-width="1.51"/><path d="M992,520L913,377L895,500Z" fill="#095b21" stroke="#095b21" stroke-width="1.51"/><path d="M805,806L917,811L896,732Z" fill="#0d6f28" stroke="#0d6f28" stroke-width="1.51"/><path d="M762,402L637,394L624,521Z" fill="#08531e" stroke="#08531e" stroke-width="1.51"/><path d="M629,291L637,394L762,402Z" fill="#095820" stroke="#095820" stroke-width="1.51"/><path d="M913,377L796,327L762,402Z" fill="#0a5a21" stroke="#0a5a21" stroke-width="1.51"/><path d="M548,400L530,519L624,521Z" fill="#0a5920" stroke="#0a5920" stroke-width="1.51"/><path d="M464,527L509,612L545,570Z" fill="#0b6223" stroke="#0b6223" stroke-width="1.51"/><path d="M545,570L509,612L635,593Z" fill="#0b6123" stroke="#0b6123" stroke-width="1.51"/><path d="M509,612L549,741L635,593Z" fill="#0b6524" stroke="#0b6524" stroke-width="1.51"/><path d="M1009,700L1086,615L929,552Z" fill="#0c6926" stroke="#0c6926" stroke-width="1.51"/><path d="M1039,786L1055,693L1009,700Z" fill="#0e722a" stroke="#0e722a" stroke-width="1.51"/><path d="M917,811L970,817L896,732Z" fill="#0d7229" stroke="#0d7229" stroke-width="1.51"/><path d="M969,871L970,817L917,811Z" fill="#0f772c" stroke="#0f772c" stroke-width="1.51"/><path d="M549,741L549,754L662,783Z" fill="#0d6c27" stroke="#0d6c27" stroke-width="1.51"/><path d="M467,727L549,754L549,741Z" fill="#0d6d28" stroke="#0d6d28" stroke-width="1.51"/><path d="M805,806L875,877L917,811Z" fill="#0e722a" stroke="#0e722a" stroke-width="1.51"/><path d="M785,936L875,877L805,806Z" fill="#0e742b" stroke="#0e742b" stroke-width="1.51"/><path d="M681,896L805,806L662,783Z" fill="#0d6b27" stroke="#0d6b27" stroke-width="1.51"/><path d="M1055,693L1086,615L1009,700Z" fill="#0d6f29" stroke="#0d6f29" stroke-width="1.51"/><path d="M992,520L1015,370L913,377Z" fill="#0a5e22" stroke="#0a5e22" stroke-width="1.51"/><path d="M1125,589L1065,459L992,520Z" fill="#0c6525" stroke="#0c6525" stroke-width="1.51"/><path d="M637,394L548,400L624,521Z" fill="#09561f" stroke="#09561f" stroke-width="1.51"/><path d="M530,519L464,527L545,570Z" fill="#0b5f23" stroke="#0b5f23" stroke-width="1.51"/><path d="M525,339L548,400L637,394Z" fill="#0a5c22" stroke="#0a5c22" stroke-width="1.51"/><path d="M1208,730L1125,589L1086,615Z" fill="#0d7129" stroke="#0d7129" stroke-width="1.51"/><path d="M970,817L1039,786L1009,700Z" fill="#0e742a" stroke="#0e742a" stroke-width="1.51"/><path d="M969,871L1039,786L970,817Z" fill="#0f782c" stroke="#0f782c" stroke-width="1.51"/><path d="M1065,459L1015,370L992,520Z" fill="#0a5e22" stroke="#0a5e22" stroke-width="1.51"/><path d="M913,377L854,276L796,327Z" fill="#0b5e23" stroke="#0b5e23" stroke-width="1.51"/><path d="M554,899L681,896L662,783Z" fill="#0e722a" stroke="#0e722a" stroke-width="1.51"/><path d="M796,327L629,291L762,402Z" fill="#095820" stroke="#095820" stroke-width="1.51"/><path d="M976,275L854,276L913,377Z" fill="#0b6324" stroke="#0b6324" stroke-width="1.51"/><path d="M875,877L969,871L917,811Z" fill="#0f772c" stroke="#0f772c" stroke-width="1.51"/><path d="M959,987L969,871L875,877Z" fill="#107d2e" stroke="#107d2e" stroke-width="1.51"/><path d="M504,402L464,527L530,519Z" fill="#0a5c22" stroke="#0a5c22" stroke-width="1.51"/><path d="M509,612L467,727L549,741Z" fill="#0c6b27" stroke="#0c6b27" stroke-width="1.51"/><path d="M1086,615L1125,589L992,520Z" fill="#0c6926" stroke="#0c6926" stroke-width="1.51"/><path d="M1208,730L1086,615L1055,693Z" fill="#0d722a" stroke="#0d722a" stroke-width="1.51"/><path d="M681,896L785,936L805,806Z" fill="#0e712a" stroke="#0e712a" stroke-width="1.51"/><path d="M728,220L629,291L796,327Z" fill="#0a5c21" stroke="#0a5c21" stroke-width="1.51"/><path d="M548,400L504,402L530,519Z" fill="#095920" stroke="#095920" stroke-width="1.51"/><path d="M525,339L504,402L548,400Z" fill="#0b5e22" stroke="#0b5e22" stroke-width="1.51"/><path d="M549,754L554,899L662,783Z" fill="#0d7029" stroke="#0d7029" stroke-width="1.51"/><path d="M355,663L467,727L509,612Z" fill="#0d6c28" stroke="#0d6c28" stroke-width="1.51"/><path d="M629,291L525,339L637,394Z" fill="#0a5d22" stroke="#0a5d22" stroke-width="1.51"/><path d="M785,936L822,962L875,877Z" fill="#10792d" stroke="#10792d" stroke-width="1.51"/><path d="M812,981L822,962L785,936Z" fill="#107b2e" stroke="#107b2e" stroke-width="1.51"/><path d="M1015,370L976,275L913,377Z" fill="#0b6324" stroke="#0b6324" stroke-width="1.51"/><path d="M1065,459L1081,367L1015,370Z" fill="#0b6324" stroke="#0b6324" stroke-width="1.51"/><path d="M1198,455L1081,367L1065,459Z" fill="#0b6424" stroke="#0b6424" stroke-width="1.51"/><path d="M1049,283L976,275L1015,370Z" fill="#0c6725" stroke="#0c6725" stroke-width="1.51"/><path d="M854,276L822,222L796,327Z" fill="#0b6123" stroke="#0b6123" stroke-width="1.51"/><path d="M953,143L822,222L854,276Z" fill="#0c6725" stroke="#0c6725" stroke-width="1.51"/><path d="M822,222L728,220L796,327Z" fill="#0a6023" stroke="#0a6023" stroke-width="1.51"/><path d="M409,278L436,336L430,238Z" fill="#0d6927" stroke="#0d6927" stroke-width="1.51"/><path d="M708,1016L812,981L785,936Z" fill="#107a2e" stroke="#107a2e" stroke-width="1.51"/><path d="M430,784L554,899L549,754Z" fill="#0e742a" stroke="#0e742a" stroke-width="1.51"/><path d="M1066,958L1064,893L969,871Z" fill="#118130" stroke="#118130" stroke-width="1.51"/><path d="M708,1016L785,936L681,896Z" fill="#0f752c" stroke="#0f752c" stroke-width="1.51"/><path d="M1039,786L1129,802L1055,693Z" fill="#0e762b" stroke="#0e762b" stroke-width="1.51"/><path d="M1064,893L1129,802L1039,786Z" fill="#0f7d2e" stroke="#0f7d2e" stroke-width="1.51"/><path d="M1064,893L1039,786L969,871Z" fill="#107c2e" stroke="#107c2e" stroke-width="1.51"/><path d="M959,987L875,877L822,962Z" fill="#107d2f" stroke="#107d2f" stroke-width="1.51"/><path d="M467,727L430,784L549,754Z" fill="#0e7029" stroke="#0e7029" stroke-width="1.51"/><path d="M355,663L430,784L467,727Z" fill="#0e712a" stroke="#0e712a" stroke-width="1.51"/><path d="M976,275L953,143L854,276Z" fill="#0c6926" stroke="#0c6926" stroke-width="1.51"/><path d="M1081,367L1049,283L1015,370Z" fill="#0c6725" stroke="#0c6725" stroke-width="1.51"/><path d="M554,899L599,973L681,896Z" fill="#10782d" stroke="#10782d" stroke-width="1.51"/><path d="M465,940L599,973L554,899Z" fill="#107d2e" stroke="#107d2e" stroke-width="1.51"/><path d="M831,1068L959,987L812,981Z" fill="#118231" stroke="#118231" stroke-width="1.51"/><path d="M812,981L959,987L822,962Z" fill="#117f2f" stroke="#117f2f" stroke-width="1.51"/><path d="M599,973L708,1016L681,896Z" fill="#10792d" stroke="#10792d" stroke-width="1.51"/><path d="M1081,367L1181,332L1049,283Z" fill="#0d6a26" stroke="#0d6a26" stroke-width="1.51"/><path d="M1125,589L1198,455L1065,459Z" fill="#0c6725" stroke="#0c6725" stroke-width="1.51"/><path d="M1242,575L1198,455L1125,589Z" fill="#0d6c28" stroke="#0d6c28" stroke-width="1.51"/><path d="M1129,802L1208,730L1055,693Z" fill="#0f782b" stroke="#0f782b" stroke-width="1.51"/><path d="M1064,893L1138,857L1129,802Z" fill="#10802f" stroke="#10802f" stroke-width="1.51"/><path d="M1066,958L1138,857L1064,893Z" fill="#118431" stroke="#118431" stroke-width="1.51"/><path d="M525,339L436,336L504,402Z" fill="#0b6123" stroke="#0b6123" stroke-width="1.51"/><path d="M366,379L339,516L464,527Z" fill="#0b6123" stroke="#0b6123" stroke-width="1.51"/><path d="M464,527L355,663L509,612Z" fill="#0b6726" stroke="#0b6726" stroke-width="1.51"/><path d="M436,336L525,339L430,238Z" fill="#0c6626" stroke="#0c6626" stroke-width="1.51"/><path d="M331,552L355,663L464,527Z" fill="#0c6926" stroke="#0c6926" stroke-width="1.51"/><path d="M1138,857L1208,730L1129,802Z" fill="#107e2e" stroke="#107e2e" stroke-width="1.51"/><path d="M728,220L687,156L629,291Z" fill="#0b6223" stroke="#0b6223" stroke-width="1.51"/><path d="M727,91L687,156L728,220Z" fill="#0b6525" stroke="#0b6525" stroke-width="1.51"/><path d="M727,91L728,220L822,222Z" fill="#0c6524" stroke="#0c6524" stroke-width="1.51"/><path d="M1208,730L1242,575L1125,589Z" fill="#0e732a" stroke="#0e732a" stroke-width="1.51"/><path d="M959,987L1066,958L969,871Z" fill="#118230" stroke="#118230" stroke-width="1.51"/><path d="M366,379L464,527L504,402Z" fill="#0a5e22" stroke="#0a5e22" stroke-width="1.51"/><path d="M1049,283L1010,192L976,275Z" fill="#0d6b27" stroke="#0d6b27" stroke-width="1.51"/><path d="M1112,164L1010,192L1049,283Z" fill="#0d7029" stroke="#0d7029" stroke-width="1.51"/><path d="M339,516L331,552L464,527Z" fill="#0c6525" stroke="#0c6525" stroke-width="1.51"/><path d="M1211,381L1181,332L1081,367Z" fill="#0d6a27" stroke="#0d6a27" stroke-width="1.51"/><path d="M1211,381L1081,367L1198,455Z" fill="#0c6826" stroke="#0c6826" stroke-width="1.51"/><path d="M1282,368L1211,381L1198,455Z" fill="#0c6c28" stroke="#0c6c28" stroke-width="1.51"/><path d="M599,973L566,1066L708,1016Z" fill="#118030" stroke="#118030" stroke-width="1.51"/><path d="M430,784L465,940L554,899Z" fill="#107b2d" stroke="#107b2d" stroke-width="1.51"/><path d="M373,919L465,940L430,784Z" fill="#107e2e" stroke="#107e2e" stroke-width="1.51"/><path d="M708,1016L831,1068L812,981Z" fill="#117f30" stroke="#117f30" stroke-width="1.51"/><path d="M959,987L985,1071L1066,958Z" fill="#128833" stroke="#128833" stroke-width="1.51"/><path d="M694,1122L831,1068L708,1016Z" fill="#117f30" stroke="#117f30" stroke-width="1.51"/><path d="M436,336L366,379L504,402Z" fill="#0b6324" stroke="#0b6324" stroke-width="1.51"/><path d="M339,516L256,560L331,552Z" fill="#0c6a26" stroke="#0c6a26" stroke-width="1.51"/><path d="M409,278L366,379L436,336Z" fill="#0c6725" stroke="#0c6725" stroke-width="1.51"/><path d="M1242,575L1261,514L1198,455Z" fill="#0d6d28" stroke="#0d6d28" stroke-width="1.51"/><path d="M1395,539L1261,514L1242,575Z" fill="#0e732a" stroke="#0e732a" stroke-width="1.51"/><path d="M1010,192L953,143L976,275Z" fill="#0d6d28" stroke="#0d6d28" stroke-width="1.51"/><path d="M1054,110L953,143L1010,192Z" fill="#0d732a" stroke="#0d732a" stroke-width="1.51"/><path d="M430,238L525,339L520,151Z" fill="#0c6926" stroke="#0c6926" stroke-width="1.51"/><path d="M520,151L525,339L629,291Z" fill="#0b6525" stroke="#0b6525" stroke-width="1.51"/><path d="M355,663L300,732L430,784Z" fill="#0e742b" stroke="#0e742b" stroke-width="1.51"/><path d="M256,560L300,732L355,663Z" fill="#0e712a" stroke="#0e712a" stroke-width="1.51"/><path d="M596,113L520,151L629,291Z" fill="#0c6926" stroke="#0c6926" stroke-width="1.51"/><path d="M917,70L727,91L822,222Z" fill="#0c6b27" stroke="#0c6b27" stroke-width="1.51"/><path d="M1181,332L1152,235L1049,283Z" fill="#0d6e28" stroke="#0d6e28" stroke-width="1.51"/><path d="M1241,158L1152,235L1318,252Z" fill="#0f792c" stroke="#0f792c" stroke-width="1.51"/><path d="M300,732L329,824L430,784Z" fill="#0f792c" stroke="#0f792c" stroke-width="1.51"/><path d="M831,1068L985,1071L959,987Z" fill="#128833" stroke="#128833" stroke-width="1.51"/><path d="M1208,730L1290,728L1242,575Z" fill="#0f792c" stroke="#0f792c" stroke-width="1.51"/><path d="M1332,770L1290,728L1309,842Z" fill="#118531" stroke="#118531" stroke-width="1.51"/><path d="M1290,728L1208,730L1309,842Z" fill="#118130" stroke="#118130" stroke-width="1.51"/><path d="M1161,1026L1138,857L1066,958Z" fill="#128933" stroke="#128933" stroke-width="1.51"/><path d="M596,113L629,291L687,156Z" fill="#0b6625" stroke="#0b6625" stroke-width="1.51"/><path d="M699,65L596,113L687,156Z" fill="#0c6b27" stroke="#0c6b27" stroke-width="1.51"/><path d="M465,940L500,1028L599,973Z" fill="#118230" stroke="#118230" stroke-width="1.51"/><path d="M400,994L500,1028L465,940Z" fill="#128632" stroke="#128632" stroke-width="1.51"/><path d="M500,1028L566,1066L599,973Z" fill="#128432" stroke="#128432" stroke-width="1.51"/><path d="M831,1068L741,1153L985,1071Z" fill="#128532" stroke="#128532" stroke-width="1.51"/><path d="M329,824L373,919L430,784Z" fill="#0f7d2e" stroke="#0f7d2e" stroke-width="1.51"/><path d="M331,552L256,560L355,663Z" fill="#0c6d27" stroke="#0c6d27" stroke-width="1.51"/><path d="M268,446L256,560L339,516Z" fill="#0c6826" stroke="#0c6826" stroke-width="1.51"/><path d="M268,446L339,516L366,379Z" fill="#0b6224" stroke="#0b6224" stroke-width="1.51"/><path d="M268,446L366,379L276,271Z" fill="#0c6926" stroke="#0c6926" stroke-width="1.51"/><path d="M566,1066L694,1122L708,1016Z" fill="#128230" stroke="#128230" stroke-width="1.51"/><path d="M727,91L699,65L687,156Z" fill="#0c6927" stroke="#0c6927" stroke-width="1.51"/><path d="M734,15L699,65L727,91Z" fill="#0d6d28" stroke="#0d6d28" stroke-width="1.51"/><path d="M953,143L917,70L822,222Z" fill="#0d6d28" stroke="#0d6d28" stroke-width="1.51"/><path d="M1152,235L1112,164L1049,283Z" fill="#0d712a" stroke="#0d712a" stroke-width="1.51"/><path d="M1054,110L917,70L953,143Z" fill="#0e752b" stroke="#0e752b" stroke-width="1.51"/><path d="M228,461L268,446L192,411Z" fill="#0c6826" stroke="#0c6826" stroke-width="1.51"/><path d="M1152,235L1150,138L1112,164Z" fill="#0e772b" stroke="#0e772b" stroke-width="1.51"/><path d="M1211,381L1282,368L1181,332Z" fill="#0d6e28" stroke="#0d6e28" stroke-width="1.51"/><path d="M1261,514L1282,368L1198,455Z" fill="#0c6926" stroke="#0c6926" stroke-width="1.51"/><path d="M1344,346L1282,368L1423,387Z" fill="#0f742b" stroke="#0f742b" stroke-width="1.51"/><path d="M985,1071L1079,1062L1066,958Z" fill="#138c34" stroke="#138c34" stroke-width="1.51"/><path d="M1183,1115L1079,1062L985,1071Z" fill="#149036" stroke="#149036" stroke-width="1.51"/><path d="M1112,164L1054,110L1010,192Z" fill="#0e752b" stroke="#0e752b" stroke-width="1.51"/><path d="M503,1132L741,1153L694,1122Z" fill="#128231" stroke="#128231" stroke-width="1.51"/><path d="M500,1028L503,1132L566,1066Z" fill="#138833" stroke="#138833" stroke-width="1.51"/><path d="M373,919L400,994L465,940Z" fill="#128531" stroke="#128531" stroke-width="1.51"/><path d="M241,965L400,994L373,919Z" fill="#128933" stroke="#128933" stroke-width="1.51"/><path d="M694,1122L741,1153L831,1068Z" fill="#118030" stroke="#118030" stroke-width="1.51"/><path d="M503,1132L694,1122L566,1066Z" fill="#128532" stroke="#128532" stroke-width="1.51"/><path d="M1079,1062L1161,1026L1066,958Z" fill="#138e35" stroke="#138e35" stroke-width="1.51"/><path d="M1290,728L1383,666L1242,575Z" fill="#0f7b2d" stroke="#0f7b2d" stroke-width="1.51"/><path d="M1309,842L1208,730L1138,857Z" fill="#108230" stroke="#108230" stroke-width="1.51"/><path d="M329,824L288,868L373,919Z" fill="#118230" stroke="#118230" stroke-width="1.51"/><path d="M224,842L288,868L329,824Z" fill="#118230" stroke="#118230" stroke-width="1.51"/><path d="M224,842L329,824L300,732Z" fill="#107e2e" stroke="#107e2e" stroke-width="1.51"/><path d="M1288,899L1309,842L1138,857Z" fill="#128932" stroke="#128932" stroke-width="1.51"/><path d="M146,787L224,842L300,732Z" fill="#10802f" stroke="#10802f" stroke-width="1.51"/><path d="M268,446L228,461L256,560Z" fill="#0c6926" stroke="#0c6926" stroke-width="1.51"/><path d="M276,271L366,379L409,278Z" fill="#0c6b27" stroke="#0c6b27" stroke-width="1.51"/><path d="M1112,164L1150,138L1054,110Z" fill="#0f782c" stroke="#0f782c" stroke-width="1.51"/><path d="M847,-36L734,15L917,70Z" fill="#0f752b" stroke="#0f752b" stroke-width="1.51"/><path d="M1241,158L1150,138L1152,235Z" fill="#0e792c" stroke="#0e792c" stroke-width="1.51"/><path d="M699,65L579,30L596,113Z" fill="#0d7029" stroke="#0d7029" stroke-width="1.51"/><path d="M596,113L579,30L520,151Z" fill="#0d7029" stroke="#0d7029" stroke-width="1.51"/><path d="M917,70L734,15L727,91Z" fill="#0d7029" stroke="#0d7029" stroke-width="1.51"/><path d="M847,-36L917,70L969,-69Z" fill="#107c2e" stroke="#107c2e" stroke-width="1.51"/><path d="M1161,1026L1288,899L1138,857Z" fill="#138b34" stroke="#138b34" stroke-width="1.51"/><path d="M1332,770L1383,666L1290,728Z" fill="#108130" stroke="#108130" stroke-width="1.51"/><path d="M1422,636L1383,666L1486,709Z" fill="#118431" stroke="#118431" stroke-width="1.51"/><path d="M1383,666L1332,770L1468,780Z" fill="#128632" stroke="#128632" stroke-width="1.51"/><path d="M711,-49L579,30L699,65Z" fill="#0e732a" stroke="#0e732a" stroke-width="1.51"/><path d="M333,169L409,278L430,238Z" fill="#0d6f29" stroke="#0d6f29" stroke-width="1.51"/><path d="M333,169L276,271L409,278Z" fill="#0e7129" stroke="#0e7129" stroke-width="1.51"/><path d="M333,169L430,238L346,140Z" fill="#0d732a" stroke="#0d732a" stroke-width="1.51"/><path d="M1318,252L1152,235L1181,332Z" fill="#0e742a" stroke="#0e742a" stroke-width="1.51"/><path d="M1395,539L1282,368L1261,514Z" fill="#0e6e29" stroke="#0e6e29" stroke-width="1.51"/><path d="M384,1081L503,1132L500,1028Z" fill="#138b34" stroke="#138b34" stroke-width="1.51"/><path d="M384,1081L500,1028L400,994Z" fill="#138b34" stroke="#138b34" stroke-width="1.51"/><path d="M1383,666L1395,539L1242,575Z" fill="#0f792c" stroke="#0f792c" stroke-width="1.51"/><path d="M241,965L384,1081L400,994Z" fill="#138e35" stroke="#138e35" stroke-width="1.51"/><path d="M140,724L300,732L256,560Z" fill="#0e772c" stroke="#0e772c" stroke-width="1.51"/><path d="M346,140L430,238L520,151Z" fill="#0d7129" stroke="#0d7129" stroke-width="1.51"/><path d="M228,461L145,481L256,560Z" fill="#0c6c28" stroke="#0c6c28" stroke-width="1.51"/><path d="M194,318L192,411L268,446Z" fill="#0c6c27" stroke="#0c6c27" stroke-width="1.51"/><path d="M194,318L268,446L276,271Z" fill="#0d6e28" stroke="#0d6e28" stroke-width="1.51"/><path d="M1318,252L1181,332L1282,368Z" fill="#0e732a" stroke="#0e732a" stroke-width="1.51"/><path d="M1015,-45L917,70L1054,110Z" fill="#0f7b2d" stroke="#0f7b2d" stroke-width="1.51"/><path d="M1344,346L1318,252L1282,368Z" fill="#0f762c" stroke="#0f762c" stroke-width="1.51"/><path d="M241,965L373,919L288,868Z" fill="#118732" stroke="#118732" stroke-width="1.51"/><path d="M1088,-1L1054,110L1138,1Z" fill="#10802f" stroke="#10802f" stroke-width="1.51"/><path d="M734,15L711,-49L699,65Z" fill="#0e712a" stroke="#0e712a" stroke-width="1.51"/><path d="M1383,666L1422,636L1395,539Z" fill="#107e2f" stroke="#107e2f" stroke-width="1.51"/><path d="M1395,539L1423,387L1282,368Z" fill="#0e712a" stroke="#0e712a" stroke-width="1.51"/><path d="M1367,889L1332,770L1309,842Z" fill="#128b34" stroke="#128b34" stroke-width="1.51"/><path d="M443,53L346,140L520,151Z" fill="#0e762b" stroke="#0e762b" stroke-width="1.51"/><path d="M333,169L275,210L276,271Z" fill="#0e742a" stroke="#0e742a" stroke-width="1.51"/><path d="M209,197L275,210L218,111Z" fill="#0f7b2d" stroke="#0f7b2d" stroke-width="1.51"/><path d="M426,-52L443,53L579,30Z" fill="#107c2e" stroke="#107c2e" stroke-width="1.51"/><path d="M579,30L443,53L520,151Z" fill="#0e752b" stroke="#0e752b" stroke-width="1.51"/><path d="M1422,636L1435,566L1395,539Z" fill="#107c2e" stroke="#107c2e" stroke-width="1.51"/><path d="M1344,346L1462,268L1318,252Z" fill="#107c2e" stroke="#107c2e" stroke-width="1.51"/><path d="M1288,899L1367,889L1309,842Z" fill="#138e35" stroke="#138e35" stroke-width="1.51"/><path d="M1326,973L1367,889L1288,899Z" fill="#149236" stroke="#149236" stroke-width="1.51"/><path d="M847,-36L711,-49L734,15Z" fill="#0f762c" stroke="#0f762c" stroke-width="1.51"/><path d="M1161,1026L1257,1052L1288,899Z" fill="#149337" stroke="#149337" stroke-width="1.51"/><path d="M1079,1062L1183,1115L1161,1026Z" fill="#149437" stroke="#149437" stroke-width="1.51"/><path d="M741,1153L1183,1115L985,1071Z" fill="#138b34" stroke="#138b34" stroke-width="1.51"/><path d="M192,411L145,481L228,461Z" fill="#0c6927" stroke="#0c6927" stroke-width="1.51"/><path d="M92,459L145,481L192,411Z" fill="#0d6c28" stroke="#0d6c28" stroke-width="1.51"/><path d="M1183,1115L1257,1052L1161,1026Z" fill="#159738" stroke="#159738" stroke-width="1.51"/><path d="M209,197L194,318L276,271Z" fill="#0e752b" stroke="#0e752b" stroke-width="1.51"/><path d="M1257,1052L1326,973L1288,899Z" fill="#159538" stroke="#159538" stroke-width="1.51"/><path d="M224,842L241,965L288,868Z" fill="#118832" stroke="#118832" stroke-width="1.51"/><path d="M185,868L241,965L224,842Z" fill="#128a33" stroke="#128a33" stroke-width="1.51"/><path d="M122,632L140,724L256,560Z" fill="#0e782c" stroke="#0e782c" stroke-width="1.51"/><path d="M146,787L185,868L224,842Z" fill="#118632" stroke="#118632" stroke-width="1.51"/><path d="M1138,1L1054,110L1150,138Z" fill="#0f7d2e" stroke="#0f7d2e" stroke-width="1.51"/><path d="M1438,407L1423,387L1395,539Z" fill="#0e732b" stroke="#0e732b" stroke-width="1.51"/><path d="M145,481L122,632L256,560Z" fill="#0d722a" stroke="#0d722a" stroke-width="1.51"/><path d="M65,719L146,787L140,724Z" fill="#118330" stroke="#118330" stroke-width="1.51"/><path d="M140,724L146,787L300,732Z" fill="#107e2e" stroke="#107e2e" stroke-width="1.51"/><path d="M1266,72L1138,1L1150,138Z" fill="#108230" stroke="#108230" stroke-width="1.51"/><path d="M1318,252L1326,186L1241,158Z" fill="#107e2e" stroke="#107e2e" stroke-width="1.51"/><path d="M1462,268L1326,186L1318,252Z" fill="#107f2f" stroke="#107f2f" stroke-width="1.51"/><path d="M1423,387L1462,268L1344,346Z" fill="#107a2d" stroke="#107a2d" stroke-width="1.51"/><path d="M1503,458L1438,407L1395,539Z" fill="#0f752c" stroke="#0f752c" stroke-width="1.51"/><path d="M1088,-1L1015,-45L1054,110Z" fill="#10802f" stroke="#10802f" stroke-width="1.51"/><path d="M748,-114L684,-86L711,-49Z" fill="#10792d" stroke="#10792d" stroke-width="1.51"/><path d="M1015,-45L969,-69L917,70Z" fill="#107f2f" stroke="#107f2f" stroke-width="1.51"/><path d="M1015,-45L1113,-152L969,-69Z" fill="#128833" stroke="#128833" stroke-width="1.51"/><path d="M1088,-1L1113,-152L1015,-45Z" fill="#128832" stroke="#128832" stroke-width="1.51"/><path d="M1266,72L1150,138L1241,158Z" fill="#107f2f" stroke="#107f2f" stroke-width="1.51"/><path d="M711,-49L684,-86L579,30Z" fill="#0f782c" stroke="#0f782c" stroke-width="1.51"/><path d="M748,-114L711,-49L847,-36Z" fill="#10792d" stroke="#10792d" stroke-width="1.51"/><path d="M1183,1115L1232,1131L1257,1052Z" fill="#159839" stroke="#159839" stroke-width="1.51"/><path d="M1389,1131L1437,1008L1326,973Z" fill="#17a03c" stroke="#17a03c" stroke-width="1.51"/><path d="M741,1153L1232,1131L1183,1115Z" fill="#148f36" stroke="#148f36" stroke-width="1.51"/><path d="M275,210L209,197L276,271Z" fill="#0e762b" stroke="#0e762b" stroke-width="1.51"/><path d="M79,440L92,459L192,411Z" fill="#0d6e29" stroke="#0d6e29" stroke-width="1.51"/><path d="M218,111L275,210L333,169Z" fill="#0f792d" stroke="#0f792d" stroke-width="1.51"/><path d="M218,111L333,169L346,140Z" fill="#0e7a2d" stroke="#0e7a2d" stroke-width="1.51"/><path d="M1422,636L1554,646L1435,566Z" fill="#118130" stroke="#118130" stroke-width="1.51"/><path d="M1435,566L1503,458L1395,539Z" fill="#10792d" stroke="#10792d" stroke-width="1.51"/><path d="M1367,889L1468,780L1332,770Z" fill="#138c34" stroke="#138c34" stroke-width="1.51"/><path d="M1511,936L1468,780L1367,889Z" fill="#159537" stroke="#159537" stroke-width="1.51"/><path d="M1437,1008L1367,889L1326,973Z" fill="#159839" stroke="#159839" stroke-width="1.51"/><path d="M1468,780L1486,709L1383,666Z" fill="#128832" stroke="#128832" stroke-width="1.51"/><path d="M1326,186L1266,72L1241,158Z" fill="#108230" stroke="#108230" stroke-width="1.51"/><path d="M145,481L7,536L122,632Z" fill="#0f762b" stroke="#0f762b" stroke-width="1.51"/><path d="M122,632L65,719L140,724Z" fill="#107f2f" stroke="#107f2f" stroke-width="1.51"/><path d="M79,440L192,411L194,318Z" fill="#0d7029" stroke="#0d7029" stroke-width="1.51"/><path d="M897,-109L748,-114L847,-36Z" fill="#117e2f" stroke="#117e2f" stroke-width="1.51"/><path d="M969,-69L897,-109L847,-36Z" fill="#118030" stroke="#118030" stroke-width="1.51"/><path d="M1113,-152L897,-109L969,-69Z" fill="#128833" stroke="#128833" stroke-width="1.51"/><path d="M44,630L65,719L122,632Z" fill="#107f2f" stroke="#107f2f" stroke-width="1.51"/><path d="M30,338L79,440L194,318Z" fill="#0e752b" stroke="#0e752b" stroke-width="1.51"/><path d="M1555,487L1503,458L1435,566Z" fill="#107b2e" stroke="#107b2e" stroke-width="1.51"/><path d="M1544,359L1462,268L1423,387Z" fill="#117e2f" stroke="#117e2f" stroke-width="1.51"/><path d="M1397,70L1322,15L1266,72Z" fill="#138c34" stroke="#138c34" stroke-width="1.51"/><path d="M44,630L122,632L7,536Z" fill="#0f7c2e" stroke="#0f7c2e" stroke-width="1.51"/><path d="M146,787L50,838L185,868Z" fill="#138933" stroke="#138933" stroke-width="1.51"/><path d="M103,1013L198,1032L241,965Z" fill="#159638" stroke="#159638" stroke-width="1.51"/><path d="M103,1013L241,965L185,868Z" fill="#149136" stroke="#149136" stroke-width="1.51"/><path d="M241,965L242,1094L384,1081Z" fill="#159437" stroke="#159437" stroke-width="1.51"/><path d="M384,1081L242,1094L503,1132Z" fill="#148f36" stroke="#148f36" stroke-width="1.51"/><path d="M198,1032L242,1094L241,965Z" fill="#159538" stroke="#159538" stroke-width="1.51"/><path d="M443,53L295,20L346,140Z" fill="#107d2e" stroke="#107d2e" stroke-width="1.51"/><path d="M551,-116L426,-52L579,30Z" fill="#117f2f" stroke="#117f2f" stroke-width="1.51"/><path d="M551,-116L579,30L684,-86Z" fill="#107c2e" stroke="#107c2e" stroke-width="1.51"/><path d="M7,536L145,481L92,459Z" fill="#0e722a" stroke="#0e722a" stroke-width="1.51"/><path d="M1544,359L1423,387L1438,407Z" fill="#107a2d" stroke="#107a2d" stroke-width="1.51"/><path d="M58,228L30,338L194,318Z" fill="#0f7a2d" stroke="#0f7a2d" stroke-width="1.51"/><path d="M295,20L218,111L346,140Z" fill="#107f2e" stroke="#107f2e" stroke-width="1.51"/><path d="M748,-114L551,-116L684,-86Z" fill="#117d2f" stroke="#117d2f" stroke-width="1.51"/><path d="M1486,709L1554,646L1422,636Z" fill="#128632" stroke="#128632" stroke-width="1.51"/><path d="M1468,780L1539,696L1486,709Z" fill="#128c34" stroke="#128c34" stroke-width="1.51"/><path d="M1617,835L1539,696L1468,780Z" fill="#149236" stroke="#149236" stroke-width="1.51"/><path d="M324,-34L295,20L443,53Z" fill="#118230" stroke="#118230" stroke-width="1.51"/><path d="M1539,696L1554,646L1486,709Z" fill="#128a33" stroke="#128a33" stroke-width="1.51"/><path d="M1503,458L1544,359L1438,407Z" fill="#107a2d" stroke="#107a2d" stroke-width="1.51"/><path d="M1389,1131L1326,973L1257,1052Z" fill="#179d3b" stroke="#179d3b" stroke-width="1.51"/><path d="M1554,646L1555,487L1435,566Z" fill="#118130" stroke="#118130" stroke-width="1.51"/><path d="M-65,842L50,838L65,719Z" fill="#138d34" stroke="#138d34" stroke-width="1.51"/><path d="M65,719L50,838L146,787Z" fill="#128832" stroke="#128832" stroke-width="1.51"/><path d="M198,1032L166,1102L242,1094Z" fill="#169939" stroke="#169939" stroke-width="1.51"/><path d="M426,-52L324,-34L443,53Z" fill="#118230" stroke="#118230" stroke-width="1.51"/><path d="M150,31L141,80L218,111Z" fill="#128732" stroke="#128732" stroke-width="1.51"/><path d="M390,-90L324,-34L426,-52Z" fill="#128732" stroke="#128732" stroke-width="1.51"/><path d="M79,440L7,536L92,459Z" fill="#0e732a" stroke="#0e732a" stroke-width="1.51"/><path d="M44,630L-51,664L65,719Z" fill="#118331" stroke="#118331" stroke-width="1.51"/><path d="M3,410L7,536L79,440Z" fill="#0e732b" stroke="#0e732b" stroke-width="1.51"/><path d="M1138,1L1113,-152L1088,-1Z" fill="#128933" stroke="#128933" stroke-width="1.51"/><path d="M1266,72L1270,-97L1138,1Z" fill="#128b33" stroke="#128b33" stroke-width="1.51"/><path d="M1397,70L1266,72L1326,186Z" fill="#118732" stroke="#118732" stroke-width="1.51"/><path d="M1555,487L1544,359L1503,458Z" fill="#107a2e" stroke="#107a2e" stroke-width="1.51"/><path d="M1462,268L1435,135L1326,186Z" fill="#118531" stroke="#118531" stroke-width="1.51"/><path d="M424,-150L390,-90L426,-52Z" fill="#138933" stroke="#138933" stroke-width="1.51"/><path d="M1482,180L1435,135L1462,268Z" fill="#128832" stroke="#128832" stroke-width="1.51"/><path d="M1437,1008L1511,936L1367,889Z" fill="#179b3a" stroke="#179b3a" stroke-width="1.51"/><path d="M1539,696L1669,644L1554,646Z" fill="#138c34" stroke="#138c34" stroke-width="1.51"/><path d="M58,228L194,318L209,197Z" fill="#0f7a2d" stroke="#0f7a2d" stroke-width="1.51"/><path d="M58,228L209,197L141,80Z" fill="#10812f" stroke="#10812f" stroke-width="1.51"/><path d="M103,1013L166,1102L198,1032Z" fill="#169b3a" stroke="#169b3a" stroke-width="1.51"/><path d="M242,1094L100,1117L503,1132Z" fill="#159537" stroke="#159537" stroke-width="1.51"/><path d="M31,920L103,1013L185,868Z" fill="#149337" stroke="#149337" stroke-width="1.51"/><path d="M1435,135L1397,70L1326,186Z" fill="#128832" stroke="#128832" stroke-width="1.51"/><path d="M1588,1024L1529,927L1511,936Z" fill="#18a23d" stroke="#18a23d" stroke-width="1.51"/><path d="M1232,1131L1389,1131L1257,1052Z" fill="#169c3b" stroke="#169c3b" stroke-width="1.51"/><path d="M1604,1146L1389,1131L1232,1131Z" fill="#18a33d" stroke="#18a33d" stroke-width="1.51"/><path d="M30,338L3,410L79,440Z" fill="#0f752c" stroke="#0f752c" stroke-width="1.51"/><path d="M1435,135L1467,29L1397,70Z" fill="#149035" stroke="#149035" stroke-width="1.51"/><path d="M1619,226L1482,180L1462,268Z" fill="#128933" stroke="#128933" stroke-width="1.51"/><path d="M-142,556L-20,580L7,536Z" fill="#107f2f" stroke="#107f2f" stroke-width="1.51"/><path d="M7,536L-20,580L44,630Z" fill="#107c2e" stroke="#107c2e" stroke-width="1.51"/><path d="M1485,1059L1511,936L1437,1008Z" fill="#18a23d" stroke="#18a23d" stroke-width="1.51"/><path d="M1511,936L1529,927L1468,780Z" fill="#169939" stroke="#169939" stroke-width="1.51"/><path d="M1174,-131L1113,-152L1138,1Z" fill="#148e35" stroke="#148e35" stroke-width="1.51"/><path d="M897,-109L1113,-152L748,-114Z" fill="#128632" stroke="#128632" stroke-width="1.51"/><path d="M748,-114L424,-150L551,-116Z" fill="#128331" stroke="#128331" stroke-width="1.51"/><path d="M1174,-131L1138,1L1270,-97Z" fill="#148f35" stroke="#148f35" stroke-width="1.51"/><path d="M30,338L-57,278L3,410Z" fill="#107c2e" stroke="#107c2e" stroke-width="1.51"/><path d="M141,80L209,197L218,111Z" fill="#11812f" stroke="#11812f" stroke-width="1.51"/><path d="M1270,-97L1266,72L1322,15Z" fill="#138e35" stroke="#138e35" stroke-width="1.51"/><path d="M103,1013L100,1117L166,1102Z" fill="#179d3b" stroke="#179d3b" stroke-width="1.51"/><path d="M50,838L31,920L185,868Z" fill="#148f36" stroke="#148f36" stroke-width="1.51"/><path d="M-65,842L31,920L50,838Z" fill="#149437" stroke="#149437" stroke-width="1.51"/><path d="M282,-76L295,20L324,-34Z" fill="#128933" stroke="#128933" stroke-width="1.51"/><path d="M150,31L218,111L295,20Z" fill="#118531" stroke="#118531" stroke-width="1.51"/><path d="M1544,359L1579,346L1462,268Z" fill="#118231" stroke="#118231" stroke-width="1.51"/><path d="M1555,487L1579,346L1544,359Z" fill="#117e30" stroke="#117e30" stroke-width="1.51"/><path d="M1669,333L1579,346L1692,374Z" fill="#128632" stroke="#128632" stroke-width="1.51"/><path d="M390,-90L282,-76L324,-34Z" fill="#128a33" stroke="#128a33" stroke-width="1.51"/><path d="M551,-116L424,-150L426,-52Z" fill="#128732" stroke="#128732" stroke-width="1.51"/><path d="M1113,-152L424,-150L748,-114Z" fill="#117f2f" stroke="#117f2f" stroke-width="1.51"/><path d="M1389,1131L1485,1059L1437,1008Z" fill="#18a43e" stroke="#18a43e" stroke-width="1.51"/><path d="M424,-150L282,-76L390,-90Z" fill="#138c34" stroke="#138c34" stroke-width="1.51"/><path d="M1402,-44L1322,15L1397,70Z" fill="#149237" stroke="#149237" stroke-width="1.51"/><path d="M1402,-44L1270,-97L1322,15Z" fill="#149437" stroke="#149437" stroke-width="1.51"/><path d="M-20,580L-51,664L44,630Z" fill="#118130" stroke="#118130" stroke-width="1.51"/><path d="M-132,725L-51,664L-142,556Z" fill="#138933" stroke="#138933" stroke-width="1.51"/><path d="M141,80L49,87L58,228Z" fill="#128732" stroke="#128732" stroke-width="1.51"/><path d="M188,-79L150,31L295,20Z" fill="#128b34" stroke="#128b34" stroke-width="1.51"/><path d="M1554,646L1669,644L1555,487Z" fill="#128732" stroke="#128732" stroke-width="1.51"/><path d="M1529,927L1617,835L1468,780Z" fill="#169839" stroke="#169839" stroke-width="1.51"/><path d="M1705,951L1617,835L1529,927Z" fill="#18a23d" stroke="#18a23d" stroke-width="1.51"/><path d="M-5,1050L100,1117L103,1013Z" fill="#17a13d" stroke="#17a13d" stroke-width="1.51"/><path d="M166,1102L100,1117L242,1094Z" fill="#169b3a" stroke="#169b3a" stroke-width="1.51"/><path d="M503,1132L100,1117L741,1153Z" fill="#138c34" stroke="#138c34" stroke-width="1.51"/><path d="M1715,687L1669,644L1539,696Z" fill="#148f36" stroke="#148f36" stroke-width="1.51"/><path d="M1541,76L1467,29L1435,135Z" fill="#149337" stroke="#149337" stroke-width="1.51"/><path d="M1541,76L1435,135L1482,180Z" fill="#138e35" stroke="#138e35" stroke-width="1.51"/><path d="M1467,29L1402,-44L1397,70Z" fill="#159437" stroke="#159437" stroke-width="1.51"/><path d="M-51,664L-65,842L65,719Z" fill="#128a33" stroke="#128a33" stroke-width="1.51"/><path d="M31,920L-5,1050L103,1013Z" fill="#179d3b" stroke="#179d3b" stroke-width="1.51"/><path d="M78,-7L49,87L141,80Z" fill="#148d35" stroke="#148d35" stroke-width="1.51"/><path d="M58,228L-57,278L30,338Z" fill="#11802f" stroke="#11802f" stroke-width="1.51"/><path d="M-159,505L-142,556L7,536Z" fill="#117f30" stroke="#117f30" stroke-width="1.51"/><path d="M78,-7L141,80L150,31Z" fill="#138c34" stroke="#138c34" stroke-width="1.51"/><path d="M282,-76L188,-79L295,20Z" fill="#138c34" stroke="#138c34" stroke-width="1.51"/><path d="M424,-150L188,-79L282,-76Z" fill="#148f35" stroke="#148f35" stroke-width="1.51"/><path d="M-21,145L-22,197L58,228Z" fill="#128732" stroke="#128732" stroke-width="1.51"/><path d="M-51,664L-132,725L-65,842Z" fill="#138e35" stroke="#138e35" stroke-width="1.51"/><path d="M-22,197L-57,278L58,228Z" fill="#118431" stroke="#118431" stroke-width="1.51"/><path d="M-65,842L-65,895L31,920Z" fill="#159839" stroke="#159839" stroke-width="1.51"/><path d="M1485,1059L1588,1024L1511,936Z" fill="#19a53e" stroke="#19a53e" stroke-width="1.51"/><path d="M1715,687L1715,548L1669,644Z" fill="#138c34" stroke="#138c34" stroke-width="1.51"/><path d="M1604,1146L1588,1024L1485,1059Z" fill="#1aac41" stroke="#1aac41" stroke-width="1.51"/><path d="M1669,333L1619,226L1579,346Z" fill="#138934" stroke="#138934" stroke-width="1.51"/><path d="M1579,346L1619,226L1462,268Z" fill="#128732" stroke="#128732" stroke-width="1.51"/><path d="M1619,226L1541,76L1482,180Z" fill="#148f35" stroke="#148f35" stroke-width="1.51"/><path d="M1467,29L1528,-43L1402,-44Z" fill="#169a3a" stroke="#169a3a" stroke-width="1.51"/><path d="M1402,-44L1340,-135L1270,-97Z" fill="#159939" stroke="#159939" stroke-width="1.51"/><path d="M1270,-97L1340,-135L1174,-131Z" fill="#159738" stroke="#159738" stroke-width="1.51"/><path d="M1174,-131L1340,-135L1113,-152Z" fill="#159638" stroke="#159638" stroke-width="1.51"/><path d="M1519,-75L1340,-135L1402,-44Z" fill="#169d3b" stroke="#169d3b" stroke-width="1.51"/><path d="M-65,895L-5,1050L31,920Z" fill="#179c3b" stroke="#179c3b" stroke-width="1.51"/><path d="M1692,374L1579,346L1555,487Z" fill="#118130" stroke="#118130" stroke-width="1.51"/><path d="M-22,197L-149,179L-57,278Z" fill="#128a33" stroke="#128a33" stroke-width="1.51"/><path d="M49,87L-21,145L58,228Z" fill="#128832" stroke="#128832" stroke-width="1.51"/><path d="M-94,125L-21,145L-90,20Z" fill="#149337" stroke="#149337" stroke-width="1.51"/><path d="M1715,687L1539,696L1617,835Z" fill="#159437" stroke="#159437" stroke-width="1.51"/><path d="M1669,644L1715,548L1555,487Z" fill="#128633" stroke="#128633" stroke-width="1.51"/><path d="M1669,333L1639,220L1619,226Z" fill="#138d35" stroke="#138d35" stroke-width="1.51"/><path d="M1619,226L1639,220L1541,76Z" fill="#149237" stroke="#149237" stroke-width="1.51"/><path d="M1669,333L1696,66L1639,220Z" fill="#149036" stroke="#149036" stroke-width="1.51"/><path d="M1715,548L1692,374L1555,487Z" fill="#118030" stroke="#118030" stroke-width="1.51"/><path d="M-65,842L-183,923L-65,895Z" fill="#169c3b" stroke="#169c3b" stroke-width="1.51"/><path d="M-102,1100L-3,1110L-5,1050Z" fill="#19a73f" stroke="#19a73f" stroke-width="1.51"/><path d="M-142,556L-51,664L-20,580Z" fill="#118331" stroke="#118331" stroke-width="1.51"/><path d="M1719,847L1715,687L1617,835Z" fill="#159839" stroke="#159839" stroke-width="1.51"/><path d="M188,-79L78,-7L150,31Z" fill="#139136" stroke="#139136" stroke-width="1.51"/><path d="M-136,437L3,410L-159,345Z" fill="#117d2f" stroke="#117d2f" stroke-width="1.51"/><path d="M-136,437L7,536L3,410Z" fill="#0f772d" stroke="#0f772d" stroke-width="1.51"/><path d="M-159,345L3,410L-57,278Z" fill="#11802f" stroke="#11802f" stroke-width="1.51"/><path d="M-102,1100L-5,1050L-179,1029Z" fill="#1aaa40" stroke="#1aaa40" stroke-width="1.51"/><path d="M-5,1050L-3,1110L100,1117Z" fill="#18a33d" stroke="#18a33d" stroke-width="1.51"/><path d="M-136,437L-159,505L7,536Z" fill="#117c2e" stroke="#117c2e" stroke-width="1.51"/><path d="M-142,556L-152,789L-132,725Z" fill="#148e35" stroke="#148e35" stroke-width="1.51"/><path d="M-132,725L-152,789L-65,842Z" fill="#149437" stroke="#149437" stroke-width="1.51"/><path d="M-159,505L-152,789L-142,556Z" fill="#138933" stroke="#138933" stroke-width="1.51"/><path d="M1715,687L1719,847L1715,548Z" fill="#149036" stroke="#149036" stroke-width="1.51"/><path d="M1705,951L1719,847L1617,835Z" fill="#17a03c" stroke="#17a03c" stroke-width="1.51"/><path d="M1622,-83L1528,-43L1541,76Z" fill="#179f3c" stroke="#179f3c" stroke-width="1.51"/><path d="M1541,76L1528,-43L1467,29Z" fill="#169939" stroke="#169939" stroke-width="1.51"/><path d="M-94,125L-22,197L-21,145Z" fill="#138c34" stroke="#138c34" stroke-width="1.51"/><path d="M-149,179L-159,345L-57,278Z" fill="#128833" stroke="#128833" stroke-width="1.51"/><path d="M-136,437L-159,345L-159,505Z" fill="#117e2f" stroke="#117e2f" stroke-width="1.51"/><path d="M1588,1024L1705,951L1529,927Z" fill="#18a73f" stroke="#18a73f" stroke-width="1.51"/><path d="M1588,1024L1677,1053L1705,951Z" fill="#1aac41" stroke="#1aac41" stroke-width="1.51"/><path d="M1389,1131L1604,1146L1485,1059Z" fill="#19a83f" stroke="#19a83f" stroke-width="1.51"/><path d="M1675,1153L1604,1146L1232,1131Z" fill="#19a840" stroke="#19a840" stroke-width="1.51"/><path d="M1622,-83L1519,-75L1528,-43Z" fill="#18a33d" stroke="#18a33d" stroke-width="1.51"/><path d="M1528,-43L1519,-75L1402,-44Z" fill="#179e3c" stroke="#179e3c" stroke-width="1.51"/><path d="M1604,1146L1677,1053L1588,1024Z" fill="#1baf43" stroke="#1baf43" stroke-width="1.51"/><path d="M-90,20L-21,145L49,87Z" fill="#149136" stroke="#149136" stroke-width="1.51"/><path d="M78,-7L-11,-18L49,87Z" fill="#149337" stroke="#149337" stroke-width="1.51"/><path d="M18,-67L-11,-18L78,-7Z" fill="#159839" stroke="#159839" stroke-width="1.51"/><path d="M424,-150L18,-67L188,-79Z" fill="#149337" stroke="#149337" stroke-width="1.51"/><path d="M188,-79L18,-67L78,-7Z" fill="#159638" stroke="#159638" stroke-width="1.51"/><path d="M-179,1029L-5,1050L-65,895Z" fill="#18a43e" stroke="#18a43e" stroke-width="1.51"/><path d="M-159,345L-183,923L-159,505Z" fill="#128833" stroke="#128833" stroke-width="1.51"/><path d="M-159,505L-183,923L-152,789Z" fill="#149337" stroke="#149337" stroke-width="1.51"/><path d="M-152,789L-183,923L-65,842Z" fill="#169b3a" stroke="#169b3a" stroke-width="1.51"/><path d="M-90,20L49,87L-11,-18Z" fill="#159538" stroke="#159538" stroke-width="1.51"/><path d="M-90,20L-149,179L-94,125Z" fill="#159437" stroke="#159437" stroke-width="1.51"/><path d="M-94,125L-149,179L-22,197Z" fill="#138e35" stroke="#138e35" stroke-width="1.51"/><path d="M1604,1146L1675,1153L1677,1053Z" fill="#1bb043" stroke="#1bb043" stroke-width="1.51"/><path d="M1677,1053L1675,1153L1705,951Z" fill="#1bb043" stroke="#1bb043" stroke-width="1.51"/><path d="M741,1153L1675,1153L1232,1131Z" fill="#159839" stroke="#159839" stroke-width="1.51"/><path d="M1639,220L1696,66L1541,76Z" fill="#159839" stroke="#159839" stroke-width="1.51"/><path d="M1692,374L1696,66L1669,333Z" fill="#138d35" stroke="#138d35" stroke-width="1.51"/><path d="M1711,-11L1696,66L1692,374Z" fill="#159638" stroke="#159638" stroke-width="1.51"/><path d="M-27,-67L-90,20L-11,-18Z" fill="#179b3a" stroke="#179b3a" stroke-width="1.51"/><path d="M18,-67L-27,-67L-11,-18Z" fill="#179b3a" stroke="#179b3a" stroke-width="1.51"/><path d="M424,-150L-27,-67L18,-67Z" fill="#159739" stroke="#159739" stroke-width="1.51"/><path d="M-183,923L-179,1029L-65,895Z" fill="#18a43e" stroke="#18a43e" stroke-width="1.51"/><path d="M1696,66L1622,-83L1541,76Z" fill="#17a03c" stroke="#17a03c" stroke-width="1.51"/><path d="M1519,-75L1622,-83L1340,-135Z" fill="#18a33d" stroke="#18a33d" stroke-width="1.51"/><path d="M1696,66L1711,-11L1622,-83Z" fill="#18a33d" stroke="#18a33d" stroke-width="1.51"/><path d="M1715,548L1711,-11L1692,374Z" fill="#138934" stroke="#138934" stroke-width="1.51"/><path d="M1719,847L1711,-11L1715,548Z" fill="#117f30" stroke="#117f30" stroke-width="1.51"/><path d="M1711,-11L1670,-82L1622,-83Z" fill="#19a73f" stroke="#19a73f" stroke-width="1.51"/><path d="M1622,-83L1670,-82L1340,-135Z" fill="#19a63f" stroke="#19a63f" stroke-width="1.51"/><path d="M-27,-67L-124,-61L-90,20Z" fill="#179f3c" stroke="#179f3c" stroke-width="1.51"/><path d="M-90,20L-124,-61L-149,179Z" fill="#169a3a" stroke="#169a3a" stroke-width="1.51"/><path d="M424,-150L-124,-61L-27,-67Z" fill="#169a39" stroke="#169a39" stroke-width="1.51"/></svg>